<svg width="144" height="40" viewBox="0 0 144 40" fill="none" xmlns="http://www.w3.org/2000/svg">
<path d="M18.4322 31.6195L18.3296 31.7214C16.6752 33.4504 14.7603 34.3668 12.7873 34.3668C8.66877 34.3668 5.67916 31.1973 5.67916 26.8241C5.67916 22.4588 8.66877 19.2849 12.7873 19.2849C14.7603 19.2849 16.6752 20.205 18.3296 21.9387L18.4322 22.0436L21.0809 18.7582L21.0101 18.669C18.8073 15.9988 16.1644 14.6989 12.9151 14.6989C9.65465 14.6989 6.67416 15.8245 4.52612 17.8545C2.19222 20.0529 0.959961 23.1531 0.959961 26.8241C0.959961 30.4933 2.19222 33.6013 4.52612 35.8002C6.67416 37.8395 9.65465 38.959 12.9151 38.959C16.1644 38.959 18.8073 37.6598 21.0101 34.9885L21.0809 34.9055L18.4322 31.6195Z" fill="#003B70"/>
<path d="M23.7578 38.5117H28.437V15.0795H23.7578V38.5117Z" fill="#003B70"/>
<path d="M46.7653 33.4167C45.5169 34.1964 44.3551 34.5884 43.3118 34.5884C41.8001 34.5884 41.1169 33.7699 41.1169 31.9467V19.5135H45.8824V15.101H41.1169V7.8099L36.5307 10.3277V15.101H32.5742V19.5135H36.5307V32.7399C36.5307 36.3434 38.6115 38.8051 41.7176 38.8691C43.8267 38.9115 45.0981 38.267 45.8703 37.7958L45.9155 37.7613L47.042 33.2432L46.7653 33.4167Z" fill="#003B70"/>
<path d="M50.6406 38.5117H55.3229V15.0795H50.6406V38.5117Z" fill="#003B70"/>
<path d="M129.951 6.16383V28.5157L131.409 26.1883C131.408 26.1986 137.957 16.469 138.797 15.2284H141.716C141.094 16.0848 135.945 23.3552 135.945 23.3552C135.945 23.3552 142.653 37.695 143.04 38.5119H140.174C140.016 38.1773 134.254 25.6624 134.254 25.6624L129.951 31.8464V38.5119H127.281V7.72835C127.514 7.59076 129.323 6.52731 129.951 6.16383ZM108.013 18.0043C109.391 15.8917 111.549 14.7269 114.074 14.7269C119.11 14.7269 121.778 18.0212 121.778 24.2551V38.5119H119.101V24.8454C119.101 19.5417 117.306 17.0798 113.417 17.0798C109.694 17.0798 107.472 19.984 107.472 24.8454V38.5119H104.802V15.2284H107.472V18.8391L108.013 18.0043ZM91.5991 14.7269C96.7806 14.7269 99.2994 17.1575 99.2994 22.159V38.5119H96.6286V35.1149L96.1089 35.7028C94.1435 37.9274 91.8874 39.0151 89.2011 39.0151C87.0961 39.0151 82.1985 38.3005 82.1985 31.6721C82.1985 26.2541 86.5582 24.3311 90.6424 24.3311C92.6931 24.3311 94.7189 24.8155 96.1891 25.6607L96.6286 25.9106V22.5679C96.6286 18.8619 94.8642 16.9851 91.3776 16.9851C89.2276 16.9851 87.2871 17.5417 85.2975 18.6921C85.1219 18.2784 84.5048 16.8787 84.333 16.4794C86.4125 15.3551 88.9803 14.7269 91.5991 14.7269ZM84.8173 31.4439C84.8173 34.9245 86.5753 36.8427 89.7692 36.8427C92.4877 36.8427 94.9021 35.5252 96.5783 33.1293L96.6286 33.0471V27.9423L96.4803 27.8541C94.7756 26.8572 93.0297 26.4551 90.4635 26.4551C86.931 26.4551 84.8173 28.3196 84.8173 31.4439ZM64.1954 6.16383V18.6192L64.7125 18.0384C66.6793 15.8099 68.8565 14.7269 71.3595 14.7269C76.3686 14.7269 79.2438 19.0098 79.2438 26.4795C79.2438 34.0942 75.9783 39.0151 70.9226 39.0151C68.4592 39.0151 66.4867 38.0347 64.7152 35.9331L64.1954 35.3125V38.5119H61.5303V7.72835C61.7572 7.59076 63.5689 6.52731 64.1954 6.16383ZM64.2589 20.6478L64.1954 20.7338V32.854L64.2431 32.9283C65.7163 35.267 68.1162 36.6654 70.6705 36.6654C74.6153 36.6654 76.6149 33.2546 76.6149 26.5292C76.6149 20.5212 74.3995 17.0798 70.537 17.0798C68.1958 17.0798 66.0834 18.2797 64.2589 20.6478Z" fill="#003B70"/>
<path fill-rule="evenodd" clip-rule="evenodd" d="M58.126 10.9219C53.8427 4.6981 46.7294 0.984808 39.4921 0.984808C32.2578 0.984808 25.143 4.6981 20.8668 10.9219L20.6475 11.2422H26.0407L26.1005 11.1758C29.7713 7.28916 34.5632 5.23378 39.4921 5.23378C44.4216 5.23378 49.2125 7.28916 52.8904 11.1758L52.9501 11.2422H58.3417L58.126 10.9219Z" fill="#D9261C"/>
</svg>
