<svg width="166" height="21" viewBox="0 0 166 21" fill="none" xmlns="http://www.w3.org/2000/svg">
<g clip-path="url(#clip0)">
<path d="M113.752 10.1C113.752 15.1 110.453 18.4 106.516 18.4C101.302 18.4 97.8967 14.9 97.8967 9.4C97.8967 4.5 101.408 1.2 105.133 1.2C110.772 1.3 113.752 5.6 113.752 10.1ZM62.5685 19.6C62.8877 19.6 63.207 19.5 63.207 19L63.3134 16.3V3.8C63.3134 2.6 63.8454 1.3 65.3352 1.3C65.6544 1.3 65.6544 0.7 65.3352 0.7L63.6326 0.8H61.7172L58.8441 0.7C58.6313 0.7 58.5249 1.3 58.8441 1.3C60.8659 1.3 61.398 2.6 61.398 3.8V14.9L51.0762 4.7L47.4582 0.8C47.2454 0.6 47.0326 0.5 46.7134 0.7C46.3941 0.9 46.5006 1.2 46.5006 1.3V16.4C46.5006 17.6 45.9685 18.9 44.4788 18.9C44.1595 18.9 44.1595 19.5 44.4788 19.5L46.1813 19.4H47.9903L50.8634 19.5C51.0762 19.5 51.1826 18.9 50.8634 18.9C48.8416 18.9 48.3095 17.6 48.3095 16.4V6L59.2698 16.9L61.93 19.5L62.5685 19.6ZM35.2211 19.6C35.4339 19.6 35.5403 19 35.2211 19C33.4121 19 32.9864 17.7 32.9864 16.5V3.7C32.9864 2.3 33.5185 1.2 34.689 1.2C35.0082 1.2 35.0082 0.6 34.689 0.6L32.6672 0.7H30.2198L28.198 0.6C27.9852 0.6 27.8788 1.2 28.198 1.2C29.3685 1.2 29.9005 2.2 29.9005 3.7V16.6C29.9005 17.8 29.3685 19.1 27.6659 19.1C27.3467 19.1 27.3467 19.7 27.6659 19.7L30.2198 19.6H35.2211ZM17.9826 20C19.0467 20 19.6852 19.8 20.5364 19.4C20.6429 19.3 20.6429 18.9 20.3236 18.9H20.1108C18.6211 18.9 16.3864 17.3 15.0031 15.9L7.6608 9L12.9813 4C15.1095 2 16.0672 1.5 17.8762 1.2C18.1954 1.1 18.1954 0.6 17.8762 0.6L15.3223 0.7H14.4711L12.5557 0.6C12.2364 0.6 12.13 0.7 12.13 0.8C12.13 1.1 12.5557 1.2 12.5557 1.8C12.5557 2.1 12.4493 2.4 11.8108 3L5.53259 8.6V3.6C5.53259 2.4 6.06464 1.1 7.76721 1.1C8.08644 1.1 8.08644 0.5 7.76721 0.5L5.21336 0.6H2.76593L0.212079 0.5C-0.000741174 0.5 -0.107151 1.1 0.212079 1.1C2.02105 1.1 2.4467 2.4 2.4467 3.6V16.5C2.4467 17.7 1.91464 19 0.212079 19C-0.107151 19 -0.107151 19.6 0.212079 19.6L2.76593 19.5H5.21336L7.76721 19.6C7.98003 19.6 8.08644 19 7.76721 19C5.95823 19 5.53259 17.7 5.53259 16.5V10.7L12.3429 17.4C14.6839 19.7 16.28 20 17.9826 20ZM82.3608 19.6C82.5736 19.6 82.68 19 82.3608 19C80.0198 19 79.807 17.7 79.807 16.5V10.2L82.4672 10.1C84.8083 10 85.3403 10.4 85.4467 11.9C85.4467 12.1 85.6595 12.2 85.8724 12.2C86.0852 12.2 86.1916 12.1 86.1916 11.9L86.298 9.7L86.6172 7.4C86.6172 7.2 85.9788 7.1 85.9788 7.3C85.8724 8.3 85.1275 8.8 84.1698 8.8H79.807V2.2L83.2121 2C85.4467 1.8 86.0852 2.3 86.1916 4C86.1916 4.2 86.4044 4.3 86.6172 4.3C86.83 4.3 86.9365 4.2 86.9365 4L87.0429 2L87.2557 0.6C87.2557 0.4 86.9365 0.4 86.83 0.4L85.1275 0.6H77.0403L74.4865 0.5C74.2736 0.5 74.1672 1.1 74.4865 1.1C76.2954 1.1 76.7211 2.4 76.7211 3.6V16.5C76.7211 17.7 76.189 19 74.4865 19C74.1672 19 74.1672 19.6 74.4865 19.6L77.0403 19.5H79.4877L82.3608 19.6ZM163.339 20C164.403 20 165.042 19.8 165.893 19.4C165.999 19.3 165.999 18.9 165.68 18.9H165.467C163.977 18.9 161.743 17.3 160.36 15.9L153.017 8.9L157.699 4.5C160.36 2 161.104 1.4 163.552 1C163.871 0.9 163.871 0.4 163.552 0.4L160.679 0.6H159.827L157.912 0.5C157.593 0.5 157.486 0.6 157.486 0.7C157.486 1 157.912 1.1 157.912 1.7C157.912 2 157.806 2.3 157.167 2.9L150.995 8.6V3.6C150.995 2.4 151.527 1.1 153.23 1.1C153.549 1.1 153.549 0.5 153.23 0.5L150.676 0.6H148.229L145.675 0.5C145.462 0.5 145.356 1.1 145.675 1.1C147.484 1.1 147.91 2.4 147.91 3.6V16.5C147.91 17.7 147.377 19 145.675 19C145.356 19 145.356 19.6 145.675 19.6L148.229 19.5H150.676L153.23 19.6C153.443 19.6 153.549 19 153.23 19C151.421 19 150.995 17.7 150.995 16.5V10.7L157.806 17.4C160.04 19.7 161.636 20 163.339 20ZM137.375 19.6L137.694 15.4C137.694 15.2 137.269 15.1 137.162 15.4C136.204 17.4 133.863 18.5 132.054 18.5C130.033 18.5 129.181 17.5 129.181 15.7V3.6C129.181 2.4 129.713 1.1 131.416 1.1C131.735 1.1 131.735 0.5 131.416 0.5L128.862 0.6H126.415L123.861 0.5C123.648 0.5 123.542 1.1 123.861 1.1C125.67 1.1 126.095 2.4 126.095 3.6V16.5C126.095 17.7 125.563 19 123.861 19C123.542 19 123.542 19.6 123.861 19.6L126.415 19.5H134.502L137.375 19.6ZM94.598 10.8C94.598 15.5 100.025 19.9 105.877 19.9C111.198 19.9 116.944 16.2 116.944 9.1C116.944 4.5 111.411 0 105.665 0C100.238 0 94.598 4.6 94.598 10.8Z" fill="black"/>
</g>
<defs>
<clipPath id="clip0">
<rect width="166" height="21" fill="white"/>
</clipPath>
</defs>
</svg>
