<svg width="183" height="54" viewBox="0 0 183 54" fill="none" xmlns="http://www.w3.org/2000/svg">
<path d="M173.304 53.8744C174.339 54.259 175.49 53.7314 175.875 52.6959L182.142 35.8223C182.527 34.7868 181.999 33.6356 180.964 33.251C179.928 32.8664 178.777 33.3941 178.392 34.4295L172.821 49.4284L157.823 43.8575C156.787 43.4729 155.636 44.0005 155.251 45.0359C154.867 46.0714 155.394 47.2226 156.43 47.6072L173.304 53.8744ZM0.999999 18.7097C1.69958 20.5834 1.69947 20.5834 1.6996 20.5834C1.69997 20.5832 1.70034 20.5831 1.70107 20.5828C1.70253 20.5823 1.70496 20.5814 1.70834 20.5801C1.7151 20.5776 1.72569 20.5737 1.74008 20.5684C1.76886 20.5577 1.81281 20.5415 1.87162 20.52C1.98925 20.4769 2.16634 20.4124 2.40043 20.3283C2.86862 20.1602 3.56477 19.9137 4.46923 19.6029C6.27829 18.9813 8.92003 18.1029 12.2375 17.0804C18.8742 15.035 28.2059 12.416 38.9788 10.1236C60.5858 5.52585 87.7403 2.29828 110.559 7.45099L111.441 3.54923C87.7597 -1.79804 59.9142 1.5792 38.1462 6.21122C27.2316 8.53377 17.782 11.1859 11.0594 13.2579C7.69715 14.2941 5.01468 15.186 3.16944 15.82C2.24676 16.137 1.53323 16.3897 1.04854 16.5637C0.806194 16.6507 0.621037 16.7181 0.495534 16.7641C0.432782 16.7871 0.384941 16.8047 0.352319 16.8168C0.336008 16.8228 0.323502 16.8275 0.314838 16.8307C0.310506 16.8323 0.307135 16.8336 0.30473 16.8345C0.303527 16.8349 0.302448 16.8353 0.301846 16.8355C0.30101 16.8358 0.300415 16.8361 0.999999 18.7097ZM110.559 7.45099C133.357 12.5989 148.776 23.9866 158.497 34.0751C163.361 39.1226 166.798 43.844 169.013 47.2916C170.12 49.0148 170.92 50.4178 171.44 51.3816C171.7 51.8635 171.889 52.2353 172.012 52.4822C172.073 52.6057 172.118 52.6979 172.146 52.7569C172.16 52.7865 172.17 52.8077 172.176 52.8205C172.179 52.8268 172.181 52.8311 172.182 52.8332C172.182 52.8342 172.183 52.8347 172.183 52.8347C172.183 52.8346 172.182 52.8342 172.182 52.8342C172.182 52.8336 172.182 52.8329 174 51.9996C175.818 51.1663 175.818 51.1653 175.817 51.1641C175.817 51.1636 175.816 51.1623 175.816 51.1612C175.815 51.159 175.813 51.1562 175.812 51.1529C175.809 51.1462 175.805 51.1374 175.8 51.1264C175.789 51.1045 175.775 51.0739 175.756 51.035C175.719 50.9572 175.666 50.846 175.595 50.7032C175.453 50.4177 175.243 50.0058 174.96 49.4828C174.396 48.4369 173.544 46.9454 172.378 45.1296C170.046 41.4992 166.451 36.5645 161.378 31.2995C151.224 20.7633 135.143 8.9013 111.441 3.54923L110.559 7.45099Z" fill="black"/>
</svg>
