<svg width="371" height="404" viewBox="0 0 371 404" fill="none" xmlns="http://www.w3.org/2000/svg">
<path d="M52.5741 216.434L52.678 216.642V216.746L52.5741 216.849V217.057L52.678 217.161L53.0934 217.369H53.6126L53.7165 217.992L53.6126 219.445L53.5088 219.653V219.757L53.4049 219.861L53.3011 220.069V220.172L53.0934 220.38L52.9895 220.484H52.8857L52.678 220.38H52.5741V220.588H52.4703L52.3664 220.38H52.2626V220.484L52.1587 220.588V220.692L52.0549 220.795H51.951L51.8472 220.692L51.7433 220.588L51.5357 220.484L51.328 220.38H51.1203L51.4318 220.588L51.5357 220.692V220.795H51.4318L50.9126 220.692L51.0164 220.795L51.328 221.003V221.107V221.211H51.2241L51.1203 221.107L50.9126 221.003H50.7049L50.4972 221.107L50.3933 221.211L51.1203 221.418H51.328L51.8472 221.315H52.0549L51.951 221.418V221.522L52.1587 221.626L52.0549 221.73L52.2626 221.834V221.938L52.1587 222.145V222.353L52.2626 222.457H52.1587L51.7433 222.353L51.6395 222.249L51.5357 222.042L51.328 221.938L51.0164 221.73L50.8087 221.626L50.7049 221.834V221.938H50.8087H50.9126H51.0164L51.1203 222.042L51.328 222.457L51.1203 222.561L50.8087 222.457L50.0818 222.145H49.9779V222.353V222.768V222.976L50.0818 223.184V223.08H50.1856L50.2895 222.976V223.08V223.288V223.391L50.7049 223.288H50.9126L51.1203 223.391L51.328 223.495H51.5357L52.1587 223.288H52.2626V223.495L52.3664 223.599L52.5741 223.703L52.678 223.807L52.7818 224.326L52.8857 224.43L52.9895 224.534L53.0934 224.638L53.1972 224.741H53.3011H53.4049H53.5088L53.6126 224.949L53.7165 225.053L53.8203 225.157V225.261V225.468V225.572V225.676V225.78V225.884L53.6126 225.988V226.091L53.1972 227.649L52.8857 228.168L52.2626 228.895L52.1587 229.103L52.0549 229.311L51.6395 229.83L51.5357 229.934L51.6395 230.037V230.141V230.245H51.5357L51.0164 230.453V230.557L50.9126 230.66V230.764V230.868L51.0164 231.18V231.387L50.8087 231.595H50.7049H50.601L50.4972 231.699V231.803L50.3933 231.907L49.5625 232.322L49.3548 232.426H48.7317L47.174 233.36L46.9663 233.568L46.6548 233.776L46.4471 233.88H46.2394H46.0317L45.6163 234.191L45.0971 234.399L44.3701 234.918L43.9547 235.022L44.0586 234.814L44.1624 234.71L44.2663 234.606L44.0586 234.71L43.8509 234.814L43.3316 235.333L43.2278 235.541V235.749L43.0201 235.956L41.9816 236.268L41.2547 236.372L38.97 237.514H38.6585L38.5546 237.618L38.3469 237.514L38.2431 237.618L38.1392 237.722L38.0354 237.826H37.8277L37.62 237.722H37.4123V237.826L37.3084 238.033L37.1007 238.241H36.9969L35.3353 238.345H35.1276L34.9199 238.241L34.7122 238.033L34.6084 237.929H34.5045L34.4007 238.033H34.2968L34.193 237.929L33.7776 237.618L31.8045 236.787L31.0775 236.268L30.766 236.164L30.6621 236.06L30.2467 235.645L30.039 235.437L29.2083 235.126L28.7929 234.71L28.3775 234.399L27.0274 233.049L25.8851 232.114L24.8466 230.66L24.7428 230.557L24.6389 230.453L24.0158 229.934L23.1851 228.895L22.7697 228.272L22.6658 227.857H22.4581L22.2504 227.753L22.0427 227.545L20.485 225.884L19.7581 225.468L19.5504 225.261L19.135 224.741L18.9273 224.534L18.6157 224.118L18.2003 223.911L17.9926 223.703L17.5772 223.288L17.4734 223.08V222.665L17.3696 222.457L17.058 222.768H16.9542L16.7465 222.665L15.6041 221.522L15.1887 221.211L14.981 221.003L14.358 220.172L13.9426 219.861L13.7349 219.653L13.631 219.342L13.1118 218.511L12.6964 218.096L12.4887 217.888L12.281 217.472L11.9694 216.953L11.8656 216.746V216.434L11.9694 216.226L12.0733 216.019L12.1771 215.811V215.499L12.281 215.292L12.3848 215.084L12.4887 214.876L12.6964 214.669L13.2156 214.357L13.5272 214.15H13.631V214.253V214.461L13.5272 214.565L13.3195 214.669L13.2156 214.773L13.4233 215.084L13.5272 215.188H13.7349H13.8387L14.0464 215.084H14.1503H14.2541H14.358H14.4618H14.5656L14.7733 214.876L14.8772 214.773H14.981L15.1887 214.98V215.188L14.8772 215.603V215.811L14.6695 216.123L14.7733 216.434L14.981 216.642L15.2926 216.746V216.849L16.2272 216.746L16.7465 216.434L16.8503 216.226L17.058 216.123H17.9926L18.408 216.019L18.5119 215.915L18.6157 215.811L18.8234 215.499V215.396H18.9273H19.0311H19.135L19.2388 215.188V214.98L19.135 214.773V214.565V214.357H19.2388H19.3427L19.4465 214.253H19.5504L19.6542 214.773V215.084L19.5504 215.292L19.7581 215.396L20.1735 215.499L20.3812 215.603V215.499V215.396L20.485 215.188L20.5889 215.292L20.6927 215.188L20.7965 215.084L20.9004 214.98V214.876L21.0042 214.773H21.1081H21.2119L21.4196 214.876H21.5235L21.6273 214.669L21.835 214.046L21.9389 213.838L22.0427 213.942L22.6658 214.669L22.7697 214.773H22.8735L22.9774 214.669V214.461L23.0812 214.357L23.1851 214.15H23.2889H23.3928H23.6005L23.912 214.046L24.1197 213.838L24.8466 213.215L24.9505 213.111H25.262H25.3659L25.5736 212.903H26.0928L27.1313 213.007L27.5467 212.8L27.6505 212.592L27.8582 212.073L28.1698 211.657L28.5852 210.93L29.2083 209.996L29.3121 209.892V209.58V209.477L29.5198 209.269L29.9352 208.438L30.1429 208.334L30.3506 208.231L30.766 207.711L30.9737 207.504H31.0775H31.1814H31.2852L31.3891 207.4L31.4929 207.296L31.5968 207.088L31.7006 206.984L31.8045 206.673V206.361L31.9083 205.842L31.8045 205.531L31.7006 205.323L31.4929 205.115L31.2852 205.011L31.1814 205.219L31.0775 205.323L30.5583 205.634L30.4544 205.842V205.946V206.154V206.361L30.5583 206.465L30.4544 206.777V206.881V206.984V207.192V207.4V207.504L30.3506 207.607H30.2467H29.9352H29.8314H29.7275H29.6237L29.5198 207.504L29.416 207.4H29.3121H29.2083H29.1044H29.0006H28.8967V207.296L28.7929 207.192L28.4813 207.088L28.3775 206.881L28.2736 206.673L28.0659 206.465V206.777L27.9621 206.984L27.7544 207.088H27.4428H27.339H27.2351L27.1313 206.984V206.881H27.0274H26.9236V206.777V206.673L27.0274 206.569L26.7159 207.088L26.8198 207.192L26.9236 207.4V207.504L26.7159 207.607L25.989 207.711L25.1582 208.023L24.4312 208.127L23.7043 208.334L23.2889 208.438L23.0812 208.542L22.7697 208.75L22.4581 208.957L22.2504 209.269L21.835 209.996L21.6273 210.1H21.3158L20.7965 209.996H19.9658H19.8619L19.6542 209.788H19.4465H19.0311H18.9273H18.8234H18.7196H18.6157H18.5119L17.8888 209.684L17.6811 209.58L17.2657 209.477L17.058 209.165L15.8118 209.061L15.3964 208.957L14.5656 208.438L13.3195 207.607L11.1387 206.673L8.95784 205.115L8.54244 204.804H8.4386V204.7V204.596V204.492L8.12705 204.388L7.91935 204.181L7.81551 203.973L7.71166 203.765L7.81551 203.869L7.91935 203.661V203.558V203.35L7.71166 203.454L7.40011 203.558L7.08857 203.454L6.98472 203.246L7.19242 202.727H7.29626L7.71166 202.623H7.81551V202.519L7.71166 202.415H7.50396H7.40011L7.29626 202.312V202.208V202.104H7.19242H7.08857H6.98472L6.88087 202L6.77702 201.896L6.67317 201.792V201.688V201.585L6.77702 201.481L6.88087 201.377H6.98472L6.88087 201.273L6.77702 201.169H6.67317L6.56933 201.273L6.46548 201.169L6.36163 201.273L6.25778 201.377L6.05008 201.481L5.84239 201.377V201.273V201.065V200.858L5.63469 200.962H5.53084H5.42699L5.32315 200.858L5.42699 200.546L5.63469 200.235L5.84239 200.027L6.56933 199.819L6.46548 199.715H6.36163L6.25778 199.819H6.15393L6.05008 199.715L5.94624 199.508L5.84239 199.404V199.612L5.94624 199.819V200.027L5.73854 200.131H5.53084L5.42699 199.923L5.53084 199.404L5.42699 198.781V198.469L5.63469 198.366L6.15393 198.573H6.36163V198.366L6.25778 198.262H6.15393H6.05008V198.054V197.95L6.25778 197.846L6.46548 197.742H6.67317H6.77702L6.88087 197.639L7.08857 197.327L7.40011 196.912L7.60781 196.704L8.0232 196.496L8.2309 195.977L9.16553 195.873H9.26938H9.68478H9.78862L9.99632 195.666H10.1002L10.204 195.562L10.8271 195.043L10.6194 194.939L10.3079 195.043L10.1002 194.939L9.78862 195.25L9.47708 195.458L9.16553 195.562H8.64629H8.4386L8.33475 195.666L8.12705 196.081L8.0232 196.289L7.91935 196.393L7.50396 196.496L7.29626 196.6L7.08857 196.704L6.88087 196.808L6.36163 196.912L6.05008 197.119L5.73854 197.223L5.53084 197.431L4.70006 198.469L4.8039 198.573V198.677L4.70006 198.781L4.59621 198.885L4.38851 198.989H4.28466H4.18081H3.97312H3.14233L2.51924 198.885L2.2077 198.781L2 198.573L2.10385 198.366H2.31154V198.158V198.054L2.51924 197.95H2.62309H2.72694L2.93463 198.158L3.14233 197.95H3.35003L3.55772 197.846L3.66157 197.535L3.35003 197.639H3.14233L2.93463 197.535L2.72694 197.327L2.62309 197.119V196.808V196.496V196.185L2.41539 196.496L2.31154 196.6L2.2077 196.496V196.289L2.31154 195.977V195.562V195.458V195.354L2.62309 194.939L2.72694 194.835L3.14233 194.731L3.24618 194.627H3.35003V194.523H3.24618V194.42V194.316V194.212L3.35003 194.108H3.45388V194.212V194.316L3.55772 194.42L3.76542 194.523H4.07697L4.18081 194.316L4.28466 194.108V194.004V193.9V193.796H4.38851L4.49236 193.9V194.004V194.108V194.212L4.90775 193.9L5.53084 193.796H6.98472H8.2309H9.16553V191.927V190.474V189.331L9.47708 188.708H10.1002L10.204 188.916L10.3079 189.747L11.1387 189.85L11.2425 189.747L11.6579 189.02V188.916V188.812L11.7617 188.708H11.9694H12.0733L12.1771 188.812L12.281 188.916L12.4887 189.331L12.6964 189.539H12.9041L13.2156 189.435L13.7349 189.124H13.9426L14.2541 189.227L14.981 189.539H15.1887L15.708 189.435L16.6426 189.124L20.1735 189.227L20.5889 189.435L21.5235 190.474L22.0427 190.785L22.7697 190.889H25.3659L25.8851 190.785L26.3005 190.37L26.4044 190.162L26.7159 189.331L26.8198 189.124L26.9236 189.02H27.339L28.0659 188.812H28.2736L28.4813 188.708L28.8967 188.397L29.1044 188.293H29.8314L30.039 188.189L30.6621 187.774L32.0122 187.462H32.5314L32.6353 187.774L32.5314 187.877L32.3237 187.981L32.2199 188.085V188.189L32.3237 188.708L32.4276 189.227L32.5314 189.435L32.7391 189.643L33.1545 189.85L34.8161 189.954L35.0238 189.85L35.543 189.643L35.7507 189.539H35.9584L36.0623 189.435L35.8546 189.227V189.02L36.0623 188.812L36.7892 188.293L36.9969 188.189H37.2046L37.5161 188.293H37.7238L37.8277 188.189L37.9315 188.085L38.0354 187.981L38.6585 187.774L38.7623 187.67L38.6585 187.358L38.2431 187.254L37.7238 187.151L37.4123 186.943V186.839V186.735V186.631V186.528V186.216V186.112V186.008V185.904V185.801L37.2046 185.593V185.178L37.3084 184.762L37.5161 184.451L38.3469 184.035L38.5546 183.828L38.4508 183.724L38.2431 183.308L37.8277 182.062L37.1007 180.92L36.7892 180.193L36.4776 179.466L36.0623 177.597L35.9584 177.286L35.7507 176.974L34.9199 176.247L34.5045 175.728L34.4007 175.416L34.2968 175.105L34.193 174.793L33.6737 174.274L33.466 173.963L33.3622 173.443L33.466 171.886L33.5699 170.64V170.12L33.2583 169.705L32.7391 169.601L32.2199 169.705L31.7006 169.913L31.1814 170.017H29.7275L28.8967 169.705L28.3775 169.497L28.1698 169.394L27.9621 169.082L27.7544 168.355L27.5467 168.044L27.0274 167.628L26.5082 167.005L26.0928 166.382L25.8851 165.655V165.448L25.989 164.721V164.201L26.0928 163.994L26.8198 162.852L27.0274 162.332L27.1313 161.813L27.0274 161.294V160.982L27.1313 160.671L27.2351 160.359V160.152V159.632L27.339 158.49L27.2351 157.971L26.9236 157.556L26.5082 157.348L25.989 157.244L22.9774 157.348L22.4581 157.14L21.5235 156.309L21.0042 155.998L19.0311 155.167L18.6157 154.752L18.5119 154.129L18.8234 152.467L19.135 150.702L19.4465 149.664L19.9658 148.729L21.1081 147.587L21.9389 147.067L23.3928 145.614L24.1197 144.368L25.1582 143.329L25.4697 142.914L26.4044 140.214L26.5082 140.006L27.6505 138.864L27.7544 138.76L28.5852 138.137L29.3121 137.306L29.5198 137.099L29.7275 136.995L30.2467 136.891L30.766 136.683L30.9737 136.579H31.2852L31.7006 136.683L32.0122 136.891L32.3237 137.099L32.7391 137.618L33.0507 137.929L33.1545 138.137L33.2583 138.449V138.968V139.279L33.6737 140.214L34.193 140.941L34.8161 141.356L35.6469 141.46L36.6853 141.252L38.1392 140.525L39.6969 139.799L40.6316 139.487L41.6701 139.279L42.7085 139.176L43.747 139.279L44.7855 139.176L46.5509 138.656L48.524 138.033L48.7317 137.929L48.8356 137.722L48.9394 135.956L49.0433 135.645L49.1471 135.333L50.1856 133.983L51.7433 132.737L52.2626 132.218L52.5741 131.595L52.8857 130.764L53.6126 127.857L53.9242 127.234L54.8588 126.091L55.1703 125.884L56.9358 124.949L58.5973 124.118L60.0512 123.391L61.7128 122.561L61.9205 122.457L62.0243 122.249L62.4397 121.211L62.7513 120.692L63.5821 119.653L64.5167 117.784L65.1398 116.538L65.8667 115.188L66.4898 113.111L67.0091 111.346L67.5283 109.58L67.736 109.373L69.9168 108.334L72.2015 107.815L72.7207 107.504L74.7977 105.738V105.531V105.323L74.59 104.7L74.2784 104.077L74.0707 103.661L73.4476 103.35V103.246L73.5515 103.038L73.7592 102.831L73.9669 102.727H74.1746V102.623V102.415V102.312L74.3823 102.415H74.59L74.6938 102.312L75.3169 101.377L75.4208 101.169L75.5246 101.065L76.0439 100.962L76.2516 100.754V100.442V100.131V99.9232L76.3554 99.6116L76.5631 99.404L76.6669 99.1963L76.8746 99.0924L77.1862 98.9886L77.4977 98.8847L77.6016 98.7809V98.5732V98.4694L77.8093 98.3655L77.9131 98.054L78.017 97.9502L78.2247 97.7425L78.4324 97.3271L78.5362 97.2233H78.8478L78.9516 97.1194V97.0156L78.8478 96.7041V96.6002L79.0555 96.4964L79.2631 96.2887L79.367 95.9772L79.2631 95.6656L79.367 95.5618L79.4708 95.4579L79.5747 95.3541H79.7824H79.8862L80.1978 95.4579H80.5093L80.6132 95.3541L80.717 95.0426L80.8209 94.8349L81.0286 94.6272L81.2363 94.5234H81.444H81.7555L81.9632 94.4195L82.1709 94.2118L82.2748 94.0042L82.4825 93.7965V93.485L82.6901 93.2773L83.0017 93.0696L83.7286 92.6542L83.6248 92.5504L83.4171 92.3427L83.2094 92.2388H83.0017L82.4825 92.3427L82.2748 92.2388L82.0671 92.0312L81.9632 91.8235L81.8594 91.6158V91.3043V90.9927L82.0671 90.3697V89.7466L82.1709 89.4351L82.6901 88.189L82.8978 87.8775L83.1055 87.6698L83.2094 87.4621L83.3132 87.1506V86.8391L82.8978 86.216L82.4825 84.866L81.7555 83.6199L81.6517 83.4123L81.9632 83.1007H82.0671V82.9969V82.7892V82.6854L82.1709 82.5815H82.2748V82.4777V82.27V81.9585L82.3786 81.7508L82.5863 81.4393L83.5209 80.7124H83.7286L83.9363 80.5047L84.2479 79.7778L85.0787 79.9855L85.3902 79.8816L85.5979 79.4663L85.7017 78.947L85.9094 78.6355L86.4287 78.8432L86.6364 78.6355H86.8441H87.1556H87.4672L87.571 78.5317L87.6749 78.4278L87.7787 78.324L87.8826 78.2201L87.9864 78.0125H88.298H88.4018L88.298 77.5971H88.5057L89.2326 77.9086H89.3364H89.4403L89.5441 77.8048H89.648L89.9595 77.9086H90.1672V77.5971L90.4788 77.2856L90.8942 77.0779L91.2057 76.974H91.4134H91.8288V76.7664L91.9326 76.2471L92.0365 76.0395L92.4519 75.5203L92.5557 75.2087L92.4519 74.8972L92.1403 74.4818L91.8288 74.1703L90.998 73.4434H90.5826L89.648 73.2357L89.2326 72.9242L88.7134 72.5088L88.298 72.3011H87.8826L87.3633 72.5088L86.8441 72.6127L86.0133 72.1973H85.494L85.0787 72.3011H84.5594L84.144 72.0935L83.8325 71.6781L83.4171 70.6397V70.3281L83.5209 70.0166L83.6248 69.8089L83.7286 69.6013V69.2897L83.6248 68.6667V68.3551L83.7286 68.0436V67.7321L83.8325 67.4206V67.109L83.6248 67.0052H83.4171L83.2094 67.2129L83.1055 67.5244L83.0017 67.7321L82.8978 67.9398L82.5863 68.1475L82.3786 68.2513L81.7555 68.3551H81.5478L81.3401 68.2513L80.9247 67.8359L80.717 67.7321H80.5093L80.0939 67.9398L79.8862 68.0436H79.5747L79.367 67.9398L79.1593 67.7321L79.0555 67.4206L79.1593 67.2129L75.0054 65.0322L74.9015 64.9283L74.6938 64.513V64.4091L74.59 64.3053L74.4861 64.2015L74.2784 64.0976L74.0707 63.9938H73.6553H73.4476H73.3438L73.1361 64.0976H73.0322H72.8246L72.6169 63.9938L72.4092 63.8899L72.3053 63.6822L71.8899 63.4746L71.163 63.163L70.7476 62.8515L70.5399 62.54L70.8514 62.2285V62.0208L70.9553 61.9169L71.0591 61.7092V61.5016L70.9553 61.3977L70.8514 61.2939L70.6437 61.0862V60.9823V60.8785V60.7747H70.5399H70.436H70.3322H70.2283V60.6708H70.3322H70.436V60.3593L70.3322 60.0478V59.7362L70.436 59.5286V59.4247V59.217L70.3322 59.1132L70.2283 58.9055L70.1245 58.6978V58.3863L70.2283 58.1786V57.8671L70.3322 57.4517L70.436 57.3479H70.5399L70.6437 57.244V57.1402V57.0363V56.9325L70.5399 56.4133V56.3095V56.2056H70.6437H70.7476V56.1018V55.8941L70.6437 55.5826L70.5399 55.271L70.436 55.0633L70.1245 54.7518V54.648L70.2283 54.4403V54.3364V54.2326L70.436 53.7134L70.2283 53.6096V53.298V52.9865L70.1245 52.7788L70.0207 52.5711L69.9168 52.1558L70.1245 51.0135V50.4943L69.3976 49.0405L69.2937 48.1059L69.086 47.1713V46.9637V46.8598V46.3406V46.0291L68.8783 44.9907L68.6706 44.783V44.6791L68.5668 44.4714L68.0475 43.7446L67.9437 43.433V43.3292L68.1514 43.1215V42.9138L68.2552 42.81V42.7061V42.2908V42.1869L68.3591 42.0831V41.9792V41.5639V41.46V41.3562L68.4629 41.2523V41.1485V41.0447V40.9408V40.837V40.7331V40.6293L68.5668 40.5254L68.6706 40.4216L69.086 40.3178H69.1899L69.5014 40.4216H69.6053L69.813 40.3178L70.0207 40.2139H70.1245H70.2283L70.436 40.3178H70.5399H70.6437V40.4216V40.5254H70.7476L70.8514 40.4216L70.9553 40.2139L71.163 39.6947V39.5909V39.487V39.3832L71.0591 39.2793V39.1755V39.0717V38.9678V38.864L71.4745 38.2409L71.5784 38.1371V37.8255L71.6822 37.6179L71.7861 37.514L71.8899 37.4102L72.2015 37.2025L72.3053 37.0987L72.513 36.9948H72.7207H72.8246H72.9284L73.0322 36.891L73.24 36.6833L73.5515 36.5794L74.0707 36.6833L74.2784 36.4756H74.3823L74.4861 36.3718L74.59 36.2679L74.6938 36.1641L74.7977 36.0602L74.9015 35.7487H75.0054H75.2131H75.3169H75.4208L75.5246 35.6449L75.6285 35.541L75.7323 35.4372L75.8362 35.2295L75.94 35.1256L76.0439 35.0218L76.2516 34.7103L76.3554 34.6064V34.5026V34.2949V34.1911V34.0872L76.4592 33.9834V33.6719L76.5631 33.568H76.6669V33.4642V33.3603L76.5631 33.2565H76.4592L76.3554 33.1526V33.0488V32.945L76.4592 32.7373V32.6334L76.0439 32.4258L76.1477 32.3219L76.4592 32.2181V32.1142V32.0104L76.2516 31.9065V31.8027V31.6989V31.595H76.0439H75.7323H75.5246H75.4208H75.3169L75.1092 31.3873H74.9015H74.7977H74.6938H74.59L74.2784 30.972H74.1746H74.0707L73.9669 30.8681H73.863L73.6553 30.972H73.5515H73.4476L73.24 30.6604L73.0322 30.5566H72.9284H72.8246H72.513L72.2015 30.8681L72.0976 30.7643L71.9938 30.6604V30.5566V30.4528V30.3489V30.1412V30.0374V29.9335L71.5784 29.3105V29.2066V29.1028V28.999V28.5836V28.4798V28.3759V28.2721L71.8899 27.7529L71.9938 27.5452V27.4413L72.2015 27.2336L72.513 27.026H72.6169H72.7207V26.9221V26.8183V26.1952V26.0914L72.6169 25.8837L72.4092 25.7799L70.7476 25.5722H69.9168L69.1899 25.676H68.6706L68.3591 25.5722L67.9437 25.7799L67.8398 25.4683V25.3645V25.2606V25.1568L67.736 25.053L67.6321 24.9491H67.5283H67.4244H67.3206H67.1129H67.0091H66.8014L66.6975 24.7414V24.6376L66.5937 24.5337L66.4898 24.4299L66.0744 24.1184L65.9706 24.0145V23.9107L65.7629 23.8069L64.6205 22.9761L64.5167 22.8723V22.7684V22.6646V22.5607V22.3531L64.6205 21.5223V21.4185V21.3146V21.2108V21.107L64.4128 20.8993L64.309 20.7954L64.2051 20.6916L63.9975 20.4839H63.8936L63.7898 20.5877H63.6859H63.5821H63.4782H63.3744H63.2705L63.0628 20.4839H62.959H62.7513H62.6474H62.5436L61.2974 20.5877H61.1935H61.0897L60.5705 20.8993L60.4666 21.0031H60.3628H60.2589L59.7397 20.8993L58.5973 20.7954L57.3512 20.2762L56.8319 20.0685L57.7666 18.4071V18.3032L57.6627 18.0955V17.9917L57.5589 17.8879L57.1435 17.5763V17.4725V17.3686V17.2648V17.161V17.0571V16.9533V16.8494V16.7456L57.455 16.3302V16.2264V16.1225L57.3512 15.9149V15.811V15.7072V15.4995L57.455 14.8764V14.7726V14.6687L57.5589 14.5649L57.6627 14.4611L57.7666 14.3572L57.9742 14.2534L58.1819 14.1495H58.2858H58.3896H58.4935L58.805 14.2534H58.9089H59.0127L59.3243 13.9418L59.4281 13.838L59.6358 13.6303L59.8435 13.5265L60.0512 13.4226H60.1551L60.2589 13.3188L60.6743 12.7996L60.7782 12.6957L60.882 12.5919L61.2974 12.7996L61.4012 12.6957L61.5051 12.5919V12.4881V12.3842V12.1765V11.7612V11.5535V11.4496L61.6089 11.3458L61.7128 11.242H61.9205H62.3359H62.6474H62.7513V11.1381V11.0343V10.9304V10.8266V10.7227V10.6189V10.5151V10.4112H62.8551L63.4782 10.0997L63.6859 9.99585L63.7898 9.892V9.78816V9.58048V9.47664L63.9975 9.26895L64.1013 8.95743V8.85358L63.8936 8.33437L63.7898 8.12669V7.81516V7.71132V7.60748V7.50363H63.8936H64.1013L64.5167 7.39979L64.6205 7.29595L65.0359 6.98442H65.1398H65.2436L65.1398 7.29595L65.3475 7.50363H65.4513H65.5552L65.8667 7.39979H66.1783H66.386H66.4898L66.6975 7.29595L67.9437 6.77674H68.1514L68.4629 6.88058L69.1899 7.08827H69.2937H69.6053H69.7091H69.813H69.9168H70.0207H70.1245L70.3322 6.98442H70.436L70.5399 7.29595L70.6437 7.39979H70.7476H70.8514H71.163H71.2668L71.3707 7.50363H71.4745H71.5784L71.6822 7.39979L71.8899 7.19211H71.9938H72.0976H72.2015L72.4092 7.29595H72.513H72.6169L72.8246 7.08827H72.9284L73.3438 7.19211L73.24 7.29595L73.4476 7.39979H73.5515H73.6553V7.29595V7.19211V7.08827V6.98442V6.88058L73.7592 6.77674V6.6729V6.56906V6.46521V6.36137L73.6553 6.25753L73.5515 6.15369L72.8246 5.63448L72.6169 5.42679L72.513 5.32295L72.4092 5.21911L71.9938 5.11526H71.8899H71.7861L71.6822 5.01142V4.90758V4.6999V4.38837H72.4092L73.1361 4.49221L73.5515 4.6999L74.59 5.32295L75.0054 5.42679L75.4208 5.53063H75.8362L76.5631 5.32295L76.6669 5.11526L76.7708 4.59605L76.8746 4.38837L77.0823 4.28453H77.29L78.1208 4.38837L78.4324 4.28453L79.0555 3.76532L80.0939 3.14226L80.4055 2.83074L81.0286 2.7269H81.3401L81.5478 2.83074L81.8594 3.34995L82.0671 3.55763L82.2748 3.45379L82.3786 2.93458V2.83074V2.7269V2.62305L82.2748 2.51921L82.4825 2.41537L83.3132 2.20768L83.7286 2H83.9363L84.144 2.20768L84.4556 2.51921H85.3902L85.8056 2.83074L86.1171 3.34995L86.221 3.55763L86.3248 4.07684L86.4287 4.18069L86.6364 4.07684L86.7402 3.973L86.8441 3.55763L87.0518 3.34995L87.2595 3.24611L87.4672 3.14226L87.8826 3.03842H88.4018L89.4403 2.93458H89.648L89.8557 3.03842L90.1672 3.34995L90.5826 3.55763L92.0365 3.86916L92.5557 4.07684L92.8673 4.38837L93.075 4.90758L92.9711 5.42679V6.04984L93.075 6.6729L93.3865 7.08827H94.1135L94.2173 6.98442V6.77674L94.3212 6.6729L95.1519 6.36137L96.1904 6.56906L97.2289 7.08827L98.0597 7.60748L98.7866 8.33437L99.0982 8.74974L100.344 11.242L100.241 11.6573L102.317 11.9688L103.46 13.6303L104.498 13.4226L105.433 13.7342L105.952 14.8764L106.471 15.188L107.718 15.6033H108.964L109.587 16.1225L110.106 16.8494L110.314 17.9917V19.9647L111.041 20.7954L112.287 21.107L113.118 21.4185L113.845 22.0415L114.156 22.6646L114.675 22.8723L115.714 23.1838L116.96 22.9761H117.479L118.414 24.2222L119.037 24.0145L119.556 25.1568L119.66 26.6106V26.7144L121.426 27.026L121.841 26.9221L122.153 26.7144L122.568 26.4029L122.776 26.2991H122.983L123.295 26.4029L123.71 26.5067L124.126 26.6106H124.541L124.853 26.4029L125.06 25.9875L125.164 25.5722L125.372 25.3645H125.787L126.93 25.676H127.241L127.449 25.5722L127.656 24.9491L127.864 24.6376L128.072 24.3261L128.383 24.1184L128.903 23.9107L129.006 23.8069L129.214 23.3915L129.422 23.1838L129.63 23.08L130.149 22.9761L130.564 22.7684L130.98 22.4569L131.395 22.2492L132.33 22.1454L132.745 21.9377L134.095 21.0031L134.303 20.7954L134.614 20.1724L134.822 19.9647L135.237 19.757H135.757L136.276 19.8609L137.107 20.1724L137.522 20.2762L137.937 20.1724L139.391 19.6532L140.949 19.5493L142.299 19.0301H142.714L143.234 19.134L143.649 19.3416L143.961 19.6532L144.065 20.1724V20.6916L144.168 21.0031L144.688 21.107L145.311 20.8993L145.622 20.7954L145.934 20.8993L146.038 21.0031V21.107V21.2108L146.141 21.3146L146.557 21.4185L146.661 21.5223L146.868 21.8339L146.765 22.0415L146.557 22.2492L146.453 22.4569V22.7684L146.765 23.2876L147.076 24.1184L147.491 24.4299L148.53 24.5337L148.738 24.6376L148.842 24.8453V25.1568L148.945 25.3645L149.153 25.4683L149.361 25.3645L149.568 25.1568L149.672 24.8453L149.984 24.6376L150.399 25.053L150.711 25.7799L150.815 26.2991L150.918 26.8183L151.022 27.3375L151.23 27.7529L151.542 27.9605L151.957 27.8567L152.372 27.5452L152.684 27.1298L152.892 26.7144L153.203 25.7799L153.411 25.4683L153.826 25.5722L154.034 25.7799L154.242 26.1952L154.345 26.2991L154.449 26.4029H154.657L154.865 26.2991L155.072 26.1952L155.28 26.0914L155.592 26.2991L155.696 26.7144V26.8183L155.592 27.4413L155.384 27.8567L154.553 28.5836L154.242 29.1028L154.345 29.7259L154.449 30.3489L154.345 30.8681L154.034 31.3873L153.619 31.8027L153.203 32.3219L153.099 32.8411L153.203 35.541L153.099 35.9564L152.892 36.2679L152.165 37.0987L152.061 37.4102L151.853 38.0332L151.645 38.9678L151.438 39.1755L150.918 39.2793L150.192 39.1755L149.984 38.9678L149.465 39.0717L149.257 39.2793L149.153 39.5909L149.049 39.9024L148.945 40.2139L148.738 40.4216L148.53 40.5254L148.011 40.6293L147.803 40.7331L147.595 40.9408L147.491 41.1485V41.46L147.595 41.6677L147.803 41.8754L147.907 42.0831V42.3946L147.595 42.81L147.076 42.9138L146.453 42.81L145.415 42.6023H145.207L144.999 42.81V43.1215L145.207 43.7446L145.518 45.3022V45.9252L145.311 46.3406H145.103L144.895 46.2368L144.791 46.3406V46.756L144.895 47.2752V47.4829L144.688 47.6906L144.376 48.0021L143.857 48.729L143.441 48.9367L140.326 48.729L139.911 48.8328L139.807 48.9367L139.599 49.1443L139.495 49.2482H139.391L139.08 49.1443L137.73 49.0405L137.314 49.4559L137.107 49.9751L137.211 50.5981L137.418 51.1173L137.626 51.6366L137.834 52.1558L138.249 52.5711L138.457 52.8827V53.1942V53.6096L138.664 54.3364V54.7518L138.561 54.9595L138.249 54.8557L137.834 54.7518H137.522L137.211 54.9595L137.107 55.3749V55.7902L137.314 56.5171L137.418 56.9325V57.6594V58.0748L137.522 58.3863V58.594L138.249 59.7362L138.457 59.8401L138.872 59.9439L139.08 60.0478L139.287 60.1516L139.495 60.3593L139.599 60.6708V60.9823L139.703 61.0862L140.118 60.8785H140.534L141.468 61.3977L141.884 61.5016H142.922L143.338 61.7092V62.2285L143.234 62.4361L142.922 62.8515L142.818 63.163L142.714 63.9938L142.611 64.3053V64.8245L142.818 65.2399L143.545 65.8629L143.753 66.2783L143.857 66.6937L143.961 67.109L144.272 67.5244L144.584 67.8359L144.688 68.3551L144.584 68.8744L144.376 69.3936L143.857 70.0166L142.611 71.055L142.091 71.6781L141.884 71.7819L141.676 71.6781L141.468 71.5742L141.261 71.4704L140.949 71.5742L140.534 71.6781L140.222 71.8858L140.014 72.0935L139.911 72.405L139.807 73.3396L139.599 73.6511H139.495L139.184 73.5473H139.08H138.872L138.561 73.6511H138.353L137.937 73.8588L137.522 73.7549L137.107 73.4434L136.795 73.1319L135.757 72.1973L135.549 71.6781L135.341 70.9512V70.7435L135.445 70.432L135.549 70.2243V70.0166L135.341 69.8089L135.03 69.7051L134.822 69.8089L134.407 70.2243L134.199 70.432L133.991 70.5358L133.472 70.6397L131.707 70.7435L131.187 70.8474L130.876 71.055V71.3666L131.187 72.0935L131.707 72.8204V72.9242V73.028L131.603 73.1319L131.499 73.2357V73.4434V73.5473V73.6511L131.81 75.001V75.3126L131.707 75.6241V75.8318H131.81H131.914L132.33 76.0395L132.641 76.4548L132.849 76.8702L134.095 78.5317L134.51 78.8432L135.03 79.1547L135.134 79.2586L135.237 79.5701V79.8816L134.926 80.5047L134.822 80.8162L134.718 81.4393L134.614 81.7508L133.576 82.3738V82.5815L133.887 82.893V82.9969V83.1007V83.2046L133.991 83.3084L134.199 83.5161L134.303 83.8276L134.407 83.9315L134.51 84.0353H134.614H134.822L135.341 84.5545L135.653 84.9699L135.549 85.1776L135.341 85.3853L134.095 86.4237L133.991 86.7352L134.51 87.0467L134.926 87.3583V87.8775L134.718 88.3967L134.614 88.9159V89.1236L134.718 89.2274L134.822 89.3313L135.237 89.5389H135.341L135.653 89.4351H135.964H136.172L136.38 89.3313L136.484 89.2274L136.587 89.0197L136.795 88.6044L137.003 88.7082L137.314 89.0197L137.522 89.1236L137.73 88.8121L137.834 88.189L138.041 87.6698L138.664 87.5659L138.872 87.6698L139.184 87.9813L139.599 88.189L139.703 88.3967L139.807 88.6044L139.911 88.8121H140.014H140.222L140.326 88.9159L140.43 89.0197V89.1236V89.2274V89.4351V89.5389L140.638 89.6428L140.741 89.7466V89.8505V89.9543V90.0582L140.845 90.162L141.053 90.2658L141.261 90.3697L141.468 90.4735L141.572 90.785V91.0966V91.4081L141.676 91.6158L141.884 91.8235L142.195 92.0312L142.507 92.135L142.818 92.3427L142.922 92.5504L143.026 92.6542L143.13 93.1734L143.234 93.3811H143.441H143.649H143.857H144.065L144.272 93.485L144.376 93.5888V93.6926V93.7965V93.9003L144.48 94.108L144.688 94.3157L144.895 94.5234L145.103 94.6272L145.415 94.7311L145.518 94.8349H145.622L146.141 94.5234H146.349H146.868L147.491 94.3157H147.803L148.738 94.5234L148.945 94.6272L149.153 94.8349L149.361 95.2503L149.672 95.5618L149.776 95.6656H149.88L150.088 95.7695L151.022 96.1848L151.334 96.3925L151.542 96.7041L151.749 97.0156L152.165 97.1194L152.372 97.0156L152.788 96.8079H152.995L153.099 96.9117L153.411 97.4309L153.722 97.6386L153.826 97.7425L153.515 98.2617L153.411 98.3655H153.307H153.203H153.099L152.995 98.4694V98.6771L153.099 98.8847L153.307 99.0924L153.411 99.3001V99.6116L153.307 99.8193L153.203 100.027L153.099 100.235L153.515 100.131H153.93L154.865 100.442L156.111 101.169L156.734 101.377L157.149 101.688L157.357 101.792H157.565L157.772 101.688H157.98L158.292 101.792L159.538 102.519L159.849 102.831L159.953 103.038L160.161 103.558L160.265 103.765L160.473 103.869L161.511 104.388L162.446 104.7L162.861 104.908L163.069 105.323L163.173 105.531L163.069 105.738H162.965L162.134 106.05L161.926 105.946L161.823 105.738L161.719 105.531L161.511 105.634L161.303 105.946L161.096 106.154L161.303 106.569L161.096 106.984L160.369 107.607L160.161 107.815L159.746 108.438L159.642 108.542L159.226 108.854L158.915 109.165L158.707 109.269L158.499 109.373L158.084 109.477L157.876 109.58L157.772 109.788L157.565 110.307L157.253 110.723L156.63 111.553L156.319 111.761L155.592 111.969L155.28 112.28L155.072 112.696V113.111L155.176 113.526L155.384 113.942L155.488 114.357V114.669L155.384 114.98L155.072 115.292L154.969 115.396L154.761 115.499L154.657 115.603V115.707V115.811V115.915V116.019L154.553 116.123L154.449 116.226L154.242 116.434L154.138 116.538L154.034 116.642L153.93 116.746V116.953L153.826 117.057L153.411 117.161L153.307 117.265V117.472L153.411 117.68L153.722 118.199L153.826 118.822L153.93 118.926H154.034H154.138L154.242 119.03V119.342V119.653L154.034 120.588H153.93L153.722 120.484H153.515L153.411 120.692L153.619 121.315V121.522L153.411 121.73L153.203 121.834H152.892H152.684L152.269 122.042L152.061 122.561L151.957 123.184V123.703L151.853 123.911L151.645 124.015L151.438 124.118L151.23 124.222L151.022 124.43L150.918 124.638V124.949V125.261L151.022 125.884L151.23 126.091H151.438H151.542L151.957 126.299L152.372 126.818L152.58 126.922L152.788 127.026L153.203 127.13L153.411 127.234L153.515 127.337L153.619 127.545L153.722 127.649H153.826L154.034 127.753L154.138 127.857L154.449 128.584L154.553 128.791L154.761 128.895H154.969L155.176 128.791H155.384L155.592 128.895L156.111 129.518L156.319 129.622L156.422 129.414L156.319 128.48V128.272L156.422 128.064L156.63 127.961H156.838H157.149V128.064V128.168V128.272L157.253 128.376L157.461 128.48L157.669 128.584L158.084 128.687L158.292 128.791L158.499 129.31L158.603 129.518L158.811 129.622L159.226 129.726L159.434 129.83L159.953 130.349L160.161 130.453H160.369H160.888L161.096 130.557L161.199 130.764V130.972L161.303 131.18L161.511 131.387L161.719 131.491H161.926H162.134L162.342 131.387L162.446 131.491V131.595V131.803L162.55 131.907L163.173 132.01L164.419 132.218L164.73 132.426L165.042 132.737L165.25 133.568L165.457 133.983L166.184 134.814L166.392 135.126L166.184 135.229V135.333L166.288 135.437H166.496V135.645L166.6 135.749H166.807L167.015 135.645L167.119 135.437L167.223 135.229L167.327 135.126H167.534L167.846 135.229L168.157 135.437L168.365 135.645L168.573 135.956L168.677 136.164V136.268L168.78 136.372L168.988 136.476L170.13 137.099L170.338 137.306L170.546 137.618L170.754 137.826L171.377 137.929L171.688 138.033L172 138.241L172.519 138.76L173.142 139.176L173.454 139.487L173.765 139.695H174.077L174.388 139.487L174.907 138.864L175.323 138.656L175.946 138.76L176.257 138.864L176.465 139.072L176.673 139.279L176.881 139.383L177.4 139.591L178.854 140.837L179.788 141.356L180.515 142.083L181.035 142.187L182.073 142.083L183.631 141.668L183.942 141.772H184.046L184.254 142.083L184.358 142.602L184.462 143.641L184.565 144.16L184.877 144.471L186.435 144.575L186.746 144.679L187.369 144.991L188.2 145.198H189.758L190.173 145.406L190.796 145.925L190.9 146.133L191.004 146.444L191.108 146.652L191.212 146.756L191.523 146.86H191.835L192.042 146.756L192.25 146.548L192.562 146.133L192.666 145.925V145.718L192.458 145.406V145.198V144.991L192.562 144.887L192.873 144.783H194.016L195.366 144.991L196.3 145.302L198.066 146.237L198.689 146.444L198.793 146.548L198.896 146.444L199 146.341H199.104V146.237V146.133V146.029L198.793 145.614L198.689 145.406L198.896 145.302H199.52L199.831 145.198L200.039 145.302L200.558 145.406H200.973L201.285 145.198L201.908 144.368L202.116 144.264H202.323L202.427 144.575L202.531 144.679L202.635 144.783L202.947 144.887L203.05 144.991L203.154 145.302H203.258L203.673 145.198L203.881 145.302L203.985 145.614L204.193 145.925L204.504 146.133L208.139 146.756L208.554 147.067L208.866 147.587L209.074 148.106L209.177 148.625V149.144L209.074 149.664L208.97 149.975L208.762 150.287L208.658 150.598L208.762 150.91L208.97 151.014L210.527 151.429H210.631L210.839 151.325L211.047 151.221H211.254L211.358 151.429L211.67 151.637L212.293 151.844L212.604 152.052L212.812 152.363L212.916 152.675L213.02 152.883L213.331 152.987H213.539H213.747L213.954 153.09V153.298V153.506H214.266L214.993 153.194H215.304L215.824 153.402V153.817V154.336L216.239 154.752L217.381 155.063H217.589L218.005 154.96L218.212 154.856L218.42 154.648L218.628 154.44H218.835L219.043 154.544L219.251 154.44L219.666 154.233L220.185 153.921L221.224 153.506H221.328L222.262 154.025L222.47 154.233L222.574 154.752L222.47 155.79L222.574 156.309L222.782 156.517L223.508 157.036H223.612H223.716H223.82L223.924 157.14V157.244V157.348V157.452L224.028 157.556H224.235L224.547 157.348L225.378 156.621L225.585 156.517H225.897L226.312 156.413L226.728 156.517L227.559 157.036L227.662 157.14H227.766H228.078H228.182L228.389 157.244H228.493L228.597 157.348L228.701 157.452H228.805H228.909L229.22 157.244L229.739 157.036H230.051H230.259L230.362 157.14V157.348L230.466 157.452H230.57H230.882H230.986L231.401 157.556L232.128 157.971L232.543 158.179L232.751 158.282L232.959 158.386L233.166 158.49L233.374 158.698L233.582 158.802L234.413 159.217L235.243 159.736H235.451L235.555 159.632L235.659 159.425L235.763 159.321H235.97L236.386 159.529H236.49L236.801 159.425L237.113 159.217L237.32 158.906L237.424 158.594L238.047 158.179L238.359 158.075L238.878 157.867L239.086 157.763L239.501 157.348L239.709 157.244H239.813V157.556V157.763L239.917 158.49L240.02 158.906L240.228 159.425L240.54 159.84L240.851 159.944L241.474 159.84L241.89 159.736L241.993 159.84L242.097 160.048L242.201 160.255L242.409 160.359L242.928 160.567H243.136L243.24 160.463L243.447 159.944L243.551 159.736L243.863 159.529L244.278 159.425H244.694L245.109 159.529L246.044 160.048L246.459 160.152L246.874 159.944L247.186 159.736L247.29 159.632L247.601 159.529L247.809 159.632L247.601 160.048H247.809L248.017 159.944L248.121 159.736L248.224 159.425L248.432 159.321L248.64 159.425L248.847 159.529H249.055L249.471 159.217L249.678 159.113V159.217L249.99 159.425L250.094 159.529L250.197 159.736L250.301 159.84L250.509 160.048L250.924 160.255L251.132 160.463H251.548L252.067 159.944L252.482 159.217L252.586 158.594V158.386V158.282L252.69 157.971L252.898 157.348L253.417 156.206L253.624 155.583L253.728 155.271V154.96V154.648L253.624 154.129V153.506V153.298L253.521 153.09L253.209 152.675L253.105 152.467L252.898 151.948L252.69 151.533L252.378 151.117L252.171 151.014L251.963 150.91L251.755 150.806L251.548 150.287L251.34 150.079L251.236 149.975V149.871V149.767L251.444 149.352V148.314L251.651 147.898L251.963 147.171H252.274V146.964L252.067 146.652L251.963 146.548V146.341V146.133L252.067 145.821V145.718L252.171 145.614L252.274 145.51V145.406V145.302L252.171 145.198V145.095L252.067 144.783V144.679V144.575L252.378 143.848L253.209 142.498L253.521 141.356L253.728 140.941L253.832 140.629L253.728 140.006L253.832 139.695V139.487L253.728 139.383L253.521 139.279L253.209 139.176L253.001 138.864L252.898 138.552V138.241L253.105 137.929H253.209H253.521H253.624H253.728L254.04 137.826L256.221 137.618L256.532 137.41L257.259 136.891L257.467 136.787L257.778 136.891L257.986 136.787L258.194 136.476L258.505 136.164L259.025 135.749H259.232L259.648 136.579L259.855 136.787L260.582 136.891L260.894 136.995L261.413 137.41L261.725 137.618L261.932 137.826V138.033L261.829 138.552V138.76L261.932 138.968L262.244 139.279L262.348 139.487V139.695V139.902L261.725 142.602L261.413 143.122L261.205 143.641L260.998 144.056L260.894 144.264V144.471L261.102 144.783V144.991V145.406L261.205 145.821L261.413 146.237L261.725 146.548L261.932 146.652L262.036 146.756L262.14 146.86L262.452 147.171L262.659 147.275L262.971 147.483L262.867 147.898L262.763 148.002L262.555 148.106L261.829 148.314L261.517 148.521L261.205 148.937L260.998 149.352L260.894 149.767L260.998 149.871L261.829 150.287L262.14 150.494L262.348 150.806L262.452 151.117V151.844L262.555 152.571L262.763 152.26L262.971 152.052H263.179L263.386 152.363V152.571V152.675V152.779L263.49 152.883L263.594 152.987H263.698H263.802L263.905 152.883H264.217L264.529 152.987L264.84 153.194L265.048 153.402L265.256 153.713L265.359 154.025L265.567 154.233L265.982 154.336H266.709H267.021L267.332 154.233L267.436 154.129L267.54 154.025L267.644 153.921H267.852H268.059L268.579 153.817L268.89 154.025L269.409 154.336L269.825 154.544L270.656 154.44L271.175 154.544L271.694 154.752L272.006 154.96V155.167L271.798 155.583L271.902 155.686H272.11L272.525 155.479H272.836L273.46 155.79H273.667H273.771H274.29H274.394L274.498 155.686V155.583V155.479V155.375V155.271L274.602 155.167L274.706 155.271H274.81L275.017 155.375H275.121H275.433L276.263 155.167L277.717 155.063L278.237 154.96L278.548 154.648L278.86 153.817L279.275 153.506H279.483H279.898L280.106 153.402L280.314 153.194L280.521 152.987L280.729 152.883L280.937 152.779L281.352 152.883L282.494 153.713L283.948 154.44L285.61 154.648L288.518 154.44H289.348H289.452L290.075 154.129H290.491L290.906 154.233H291.841L292.256 154.336L292.671 154.544L292.879 154.648H293.087L293.295 154.544L293.502 154.44H293.606L293.814 154.233L293.918 153.921L294.022 153.713L294.125 153.506L294.333 153.298H294.541H295.06L295.268 153.402L295.372 153.61L295.683 154.233L295.891 154.336H296.098L296.514 154.129H296.722L297.241 154.336H297.448L298.072 154.233L298.487 154.025L299.318 153.506L299.733 153.402L299.837 153.61L299.941 153.817V154.025L300.045 154.233H300.252L300.356 154.025V153.817L300.252 153.61L300.564 153.506V153.298V153.09L300.772 152.987L300.979 153.09L301.395 153.402L301.602 153.506L302.329 153.402L302.745 152.987L302.849 152.467V152.26L302.641 151.429L302.433 151.014L301.81 150.39L301.706 149.975V149.767V149.456L301.81 149.248L302.226 148.625L302.433 148.417L302.537 148.314V148.21V147.898V147.794L302.745 147.587L303.16 147.275L303.264 147.067V146.86L302.122 144.783L301.81 144.471H301.706L301.291 144.783L301.083 144.887H300.668L300.356 144.991L299.422 145.302H299.006L298.902 145.198V144.991L298.695 144.679L298.383 144.575L298.072 144.471L297.76 144.368L297.552 144.16L297.448 143.952L297.137 143.641L297.033 143.433L296.722 142.395L296.825 141.875L297.448 141.045L297.552 140.422L299.318 140.318L299.837 140.422L300.252 140.733L300.46 140.837H300.979L301.499 140.941H301.81L302.226 140.733L302.952 140.006L303.368 139.799H303.576L304.614 139.902H304.718H304.822L304.926 139.799V139.695V139.591V139.487L305.029 139.279H305.133L305.237 139.487L305.445 140.006L305.653 140.318L305.86 140.422L306.068 140.214L306.172 139.799H306.276L306.379 140.006L306.483 140.214H306.691L306.795 140.006L306.899 139.695L307.003 139.487H307.106L307.314 139.799L307.418 139.902H307.522L307.937 139.591L308.56 139.383L308.768 139.279L309.08 138.864L309.183 138.76L309.495 138.656L309.806 138.552L310.222 138.241L310.533 137.826V137.41L310.637 136.995V136.787L310.533 136.683L310.118 136.579L309.91 136.476V136.268L310.118 135.749L310.326 135.333L310.741 135.022L311.572 134.503L311.676 134.399V134.503V134.606L311.78 134.71H311.987H312.195L312.299 134.606L312.506 134.503L312.714 134.295L313.026 133.88L313.233 133.672L313.441 133.776L313.96 133.568L314.168 133.36L314.48 132.945L315.622 132.114L315.934 131.803L316.141 131.283L316.349 130.764L316.453 130.245L316.868 129.934L317.284 129.622L317.803 129.31L318.426 128.687L318.945 128.376L320.087 127.649L321.437 127.545L322.164 127.649H322.372L322.58 127.545L322.788 127.337L322.995 127.234L323.203 127.337L323.411 127.441L323.618 127.337L324.449 126.507L324.657 126.403L325.695 125.78L325.799 125.676V125.572H325.903H326.007H326.111V125.468V125.364V125.261V125.157L326.214 125.053H326.422H326.734H326.941L327.149 124.949L327.357 124.845L327.565 124.638L328.188 124.326L328.915 124.118L329.434 123.703H330.368L330.888 123.08L331.615 122.353L331.095 121.834L330.576 121.315L330.784 120.588H331.199H331.303L331.407 120.484L331.615 120.069L331.718 119.861L332.03 119.757H332.342H332.965L333.276 119.653L333.484 119.549L333.692 119.445L334.418 118.407L334.626 118.199H335.042L335.561 118.407L335.976 118.719L336.599 119.549L336.703 119.757L336.599 120.276L336.807 120.38H337.119H337.326H337.846L338.365 120.484L339.299 120.899L339.611 121.003L339.507 120.899L339.299 120.692L339.196 120.38L339.403 120.484L339.611 120.588L340.338 120.795L340.961 121.211L341.169 121.315L342.103 121.522H342.207L342.311 121.626L342.415 121.73V121.834V121.938L342.519 122.042L343.246 122.145L343.142 121.315L343.557 121.003H344.388L344.907 121.107L345.115 120.38L345.323 120.276V120.795L345.53 121.211L345.634 121.003L346.05 121.107L346.153 121.003V120.692L346.05 120.172V119.965H346.465V119.861V119.757V119.653L346.569 119.549H346.673H346.776H346.88L347.607 119.861L348.542 119.965L348.957 119.134V118.199L349.373 118.096L349.58 117.992L350.411 118.407L351.553 117.888L352.28 117.784L353.007 117.68H353.838L353.942 117.888L354.15 118.615L354.254 118.822L354.669 119.238L355.084 119.445H355.5L355.915 119.134L356.123 118.926L356.331 118.822L356.538 118.926L356.746 119.134V119.342L356.434 119.861L356.227 120.276L356.123 120.38L354.773 120.795L354.565 120.899L354.461 121.107L354.357 121.315L354.669 122.457L355.707 121.73L356.642 121.418L356.85 122.249L357.992 122.872L357.888 123.08V123.288L357.992 123.391H358.2L358.407 123.599L358.511 123.911L358.615 124.534L358.823 124.845L359.446 125.676L359.654 126.403L359.757 127.13L358.511 128.064L357.681 128.584L358.096 129.31L357.577 129.934L357.992 130.349L358.407 131.283L358.615 131.18L358.719 130.349L358.823 129.726L359.238 128.999L359.965 128.687L361.004 128.999L361.938 130.037L362.873 130.66L363.392 131.387L363.6 132.426L364.015 132.633L364.431 132.737L364.846 132.633L365.261 132.322L365.885 132.114L366.3 132.218L367.131 132.945H367.235H367.338H367.442L367.546 133.256L367.65 133.36L368.377 133.88L368.896 134.191L369 134.606L368.585 135.437L368.481 135.956L368.688 136.268L368.896 136.372L369 136.787L368.896 136.995L368.688 137.41L368.585 137.618V137.929V138.137L368.481 138.241L368.273 138.345L367.962 138.449L367.858 138.345V138.137L367.754 137.929H367.546L367.338 138.033L367.131 138.137L367.027 138.241L366.819 138.449L366.611 138.656L365.988 139.279L365.885 139.383H365.781L365.677 139.487L365.573 139.695L365.469 139.799L365.261 139.902L365.158 140.006V140.11V140.318V140.422H365.054L364.846 140.525L364.431 140.629L364.223 140.733L363.808 141.252L363.6 141.46L363.081 141.772L362.873 141.979L362.665 142.187L362.561 142.498V142.81L362.665 142.914L362.769 143.122V143.225V143.329V143.641V143.745V143.952L362.561 144.368L362.665 144.679L362.977 145.198L365.054 147.898L365.365 148.314L365.469 148.417V148.625V148.729L365.573 148.833L365.677 148.937L365.781 149.041L365.885 149.144V149.248L365.781 149.664V149.767L365.573 149.871H365.469L365.365 149.767L365.158 149.664H365.054H364.95L364.846 149.767H364.742L364.638 149.664L364.535 149.56L364.431 149.456L364.327 149.352L362.561 148.521L362.25 148.314V148.106L362.354 147.898L362.458 147.587L362.354 147.483L361.938 147.171L361.834 146.964L361.523 146.548L361.315 146.341L361.108 146.133L360.692 145.925L360.484 145.821H360.277L360.173 145.925L359.965 146.133L359.861 146.237H359.654H359.55L359.446 146.133L359.342 146.029L359.031 145.925L358.927 146.029L358.823 146.237L358.615 146.548L358.407 146.652L358.096 146.756H357.784L357.577 146.652H356.746L353.423 147.275L352.592 147.691L351.865 148.21L351.346 148.937L350.93 149.871L350.619 150.287L350.307 150.598L349.996 150.806L349.269 150.91L348.957 151.014L348.438 151.74L348.126 152.26L348.023 152.467L347.815 152.571L347.192 152.675L346.984 152.779L346.88 152.987L346.776 153.298L346.673 153.61L346.465 153.713H346.257H345.946L345.426 153.817L345.115 154.336L344.803 154.96L344.388 155.479L344.18 155.583L343.246 155.894L342.83 156.102L342.623 156.206H342.415H342.311L342.103 155.894H341.896L341.792 155.998L341.584 156.309L341.48 156.413L341.376 156.517L341.065 156.621L340.961 156.725L340.857 156.829V156.933V157.348V157.452V157.556L340.753 157.763L340.649 157.971L340.234 158.386L340.026 158.594L339.819 158.906V159.113L340.026 159.529L340.13 159.84V160.048L339.922 160.567L339.819 160.982V161.502L339.922 162.021L340.13 162.436L340.234 162.54H340.338H340.442L340.546 162.644V162.748L340.442 162.852L340.338 162.955V163.059L340.442 163.994L340.649 164.098L341.065 164.201L341.272 164.409V164.721L341.169 165.032L340.753 165.551L340.234 166.174L340.026 166.278L339.507 166.486L339.403 166.59L339.299 166.901V167.213L339.507 168.667V168.978L339.403 169.186L339.299 169.29H338.988H338.884L338.78 169.394L337.638 171.055L337.534 171.159V171.263L337.638 171.367V171.47L337.534 171.574H337.326H337.222L337.015 171.782L336.703 172.301L336.495 172.509L336.288 172.613L335.872 172.717L335.665 172.82L335.249 173.132L335.145 173.236L334.938 173.547L334.626 173.963L333.899 176.039V176.663L334.211 177.078L334.626 177.286L335.145 177.389L335.561 177.597L335.769 178.012L335.872 178.636L335.769 179.259L335.561 179.674L335.353 179.985L335.145 181.128L334.938 181.543L334.418 182.27L334.315 182.685V182.893V183.101L334.211 183.308L334.107 183.516L333.899 183.62H333.795H333.588H333.38L333.276 183.828L332.965 184.762L332.861 185.074L332.342 185.489L332.238 185.593L332.134 185.801L331.926 186.528L331.718 186.631L331.615 186.735L331.511 186.943V187.462L331.407 187.67L331.303 187.774L331.199 187.981V188.085V188.293V188.397L331.095 188.501L330.784 188.708L330.68 188.812L330.576 189.02V189.435L330.472 189.643L329.849 191.097L329.745 191.616V192.135L329.641 192.343L329.538 192.55L329.434 192.654L329.33 193.173V193.381L328.811 194.108L328.707 194.42V194.731V195.043V195.354L328.603 195.562H328.395L328.188 195.354L327.98 195.146L327.772 194.939L327.045 194.523L326.734 194.42L326.318 194.316L326.007 194.212L325.591 194.108L324.553 194.212L324.241 194.108L323.722 193.381L323.307 193.277L322.684 193.173H322.061L321.749 193.381V193.485V193.589L321.645 193.693L321.541 193.796H321.437L321.334 193.693L321.23 193.589H321.126L320.918 193.693L320.503 193.9H320.191H319.984L319.88 193.796V193.589L319.776 193.381L319.36 192.966L319.257 192.758L318.945 192.239L318.737 192.135L318.426 192.239L318.218 192.447L318.114 192.758V192.862V193.173V193.485L318.218 193.693L318.322 193.9L318.634 194.316L318.737 194.42L318.841 194.523V194.627V194.835V195.354L319.049 196.912L319.464 197.223L319.568 197.327L319.776 197.535L319.88 197.639V198.054L319.464 200.754V201.169L320.191 201.585V201.688V201.792V201.896L319.984 202.208L319.88 202.415V202.623L319.984 203.246L319.88 204.181V204.388V204.596V204.804L319.36 205.842L319.153 206.05L318.945 206.258L318.634 206.465H318.322L318.01 206.258L317.803 205.946L317.595 205.738L317.387 205.634L317.076 205.738L316.972 205.946V206.361L317.076 206.777L317.18 207.088L317.387 207.607L317.491 207.919V208.127L317.284 208.438L316.868 208.957L316.764 209.269L316.349 209.684L316.245 210.723V211.034L316.349 211.346L316.66 211.865L316.764 212.177V212.488L316.66 213.007V213.319L316.764 213.734L316.868 213.942L317.284 214.461L317.491 214.98L317.595 216.538V216.642L317.491 216.849L317.387 216.953H317.284L316.972 217.057H316.868V217.265L317.076 217.68L316.764 217.784L316.557 217.68L316.349 217.576L316.141 217.472L315.83 217.369H315.726L315.622 217.472V217.576V217.68V218.615V218.719L315.414 218.822H315.31L315.207 218.926L314.999 219.342V219.549V219.757L315.103 219.965V220.069V220.172V220.276V220.38H314.999H314.895H314.791L314.687 220.276L314.48 220.069L314.272 219.965L314.064 220.069L313.96 220.38L313.857 220.795L313.753 220.899L313.649 220.795L313.545 220.38L313.441 219.965L313.233 219.653L312.403 218.822L311.572 218.199L311.26 218.096L311.156 218.199V218.407V218.822V218.926H311.053H310.949L310.845 219.238V219.445V219.653V219.861L310.741 220.069L310.637 220.172H310.533H310.43L310.326 220.38L310.222 220.484L310.118 220.588L310.014 220.692H309.91V220.588V220.484L309.703 219.549L309.391 218.615L309.495 218.511H309.703L309.806 218.407V218.096L309.08 213.63V213.423L308.872 213.007V212.8V211.969L308.768 210.93L308.664 210.723L308.56 210.515L308.249 210.204L308.145 209.996L308.041 209.58L307.937 208.542L307.729 208.334L307.314 208.127L307.106 207.815L307.003 207.4V206.465L306.691 204.492V203.973V203.765L306.899 203.246L307.003 203.038V202.935L306.899 202.831L306.795 202.623V202.519V202.208V202.104V202L306.587 201.896L306.483 201.792V201.688V201.481V201.377L306.379 201.273L306.172 201.065L306.068 200.962L305.964 200.754L305.86 200.131L305.341 198.573V198.158L305.445 197.535V197.327V197.223L305.237 197.119L305.029 197.223L304.822 197.846L304.614 198.054L304.406 197.846L304.302 197.327L304.095 196.912L303.576 197.119L303.368 197.327L302.952 197.95L302.745 198.158L302.433 198.262L302.226 198.158L301.706 197.535L301.499 197.327L301.291 197.119H301.083L300.979 197.327V197.639V198.158L301.291 199.715V200.235L300.979 200.754L300.772 200.962L300.564 201.065L299.837 201.377L299.629 201.585L299.318 202L298.902 202.623L298.695 203.246L300.252 203.038L300.46 203.454L300.668 204.388L300.876 204.804V205.011L300.772 205.115L300.564 205.323H300.46L300.356 205.427V205.531V205.634V205.738L300.149 206.05L300.045 206.154L299.837 206.361L299.733 206.465L299.629 206.569L299.318 206.673L299.11 206.777H299.006H298.902H298.799H298.695H298.591L298.487 206.881V206.984L298.383 207.088L298.175 207.192V207.088L298.072 206.984L297.864 206.881H297.656L297.448 206.777L297.241 206.569L297.137 206.465V206.05H297.033L296.929 205.738L296.618 204.7L296.514 204.596L296.41 204.181L296.202 203.973V203.869V203.765V203.661L296.098 203.558V203.661L295.995 203.454L295.787 203.142L295.579 202.935H295.268L295.164 203.142L295.06 203.454V204.077L295.268 205.219V205.634L294.852 205.531L294.541 205.115L294.333 204.596L294.022 202.415L293.918 202.312L293.814 202.208V202.104L293.918 202L294.022 201.896L294.125 201.792V201.688H293.918L293.71 201.585L293.606 201.273L293.398 200.65L293.295 200.339V200.235L293.191 200.131L292.983 200.027L292.879 199.923L292.775 199.715L292.671 199.3L292.568 199.092L292.152 198.366L292.048 198.158V197.846H292.256H292.464L292.568 197.639L292.464 197.431L292.256 197.327L292.048 197.223L291.945 196.912L292.048 196.6L292.256 196.496H292.464L292.671 196.393L292.775 196.185L292.983 195.458V195.25L292.879 195.043L292.775 194.731V194.523L292.879 194.316L293.295 193.589L293.398 193.381L293.606 193.277L293.814 193.173H294.022H294.125H294.229L294.333 193.07L294.437 192.55V192.031L294.541 191.72H295.06L295.995 191.927H296.41L296.929 191.823L297.241 191.72L297.448 191.616L297.552 191.408L297.656 191.097L297.76 190.266L297.864 190.058H297.968L298.175 190.577L298.279 190.785L298.487 190.889H298.695L298.902 190.785L299.006 190.577V190.37L298.902 190.058V189.747L299.006 189.539L299.837 189.747H299.941V189.85V190.162V190.266L300.356 190.681L300.564 190.785L300.772 190.681L300.876 190.474L301.187 189.331V189.02L301.083 188.501V188.293L301.395 188.189L301.499 188.293L301.81 188.501L302.018 188.604V188.397L301.706 187.877V187.67L302.745 187.774H303.16L303.472 187.67L303.679 187.358V186.943L303.576 186.112L303.679 185.801L303.783 185.697L303.991 185.593L304.095 185.489L304.199 185.281L304.302 185.074L304.406 184.555L304.51 184.035L305.133 182.27V182.062V181.855V181.647L304.926 181.232V181.024L305.029 180.816L305.445 180.609L305.964 180.816L306.795 181.335V181.439L306.899 181.543H307.003H307.106L307.833 181.335L308.249 181.232L308.456 180.92V180.816V180.609L308.353 180.401L308.249 180.297L307.937 180.193L308.041 180.089V179.985L307.937 179.882L307.522 179.57L307.314 179.466H307.21V179.362V179.155L306.899 178.947L306.587 178.843L306.379 178.532L306.276 178.428L305.653 178.324L305.445 178.22L305.237 178.116L305.133 178.012L304.926 177.909L304.718 177.701L304.614 177.597H304.51L304.302 177.701H304.199L304.095 177.597H303.887H303.783L303.679 177.493L303.576 177.286L303.472 177.182L303.16 177.078L302.745 176.974H302.329L302.018 177.078L301.81 177.182L301.083 177.078L299.733 177.286L299.11 177.182H298.902L298.799 177.286L298.695 177.493L298.591 177.597H298.487L298.279 177.493H298.175L298.072 177.701L297.968 177.805H297.656H297.345L297.137 177.701L296.929 177.493L296.825 177.286L296.722 177.182H296.514H296.41L296.202 177.389H296.098H295.995L295.787 177.493H295.683L295.164 177.389L293.295 176.87L292.671 176.559H292.568L292.256 176.663H292.152H291.425L289.452 176.974L289.037 177.078H288.933L287.479 177.286H287.168L286.96 177.182L286.752 177.078L286.544 176.974H286.337H286.233L286.129 177.078H286.025H285.921L285.506 176.974L285.194 176.87H285.091H284.883L284.364 176.974L283.325 176.87L282.079 177.182H281.664L280.729 176.766L278.756 176.351L275.952 175.209H275.433L275.017 175.416H274.81L274.706 175.105L274.602 174.586V174.066L274.706 173.651V173.547L274.81 173.132L275.017 172.405V171.367L275.121 170.432L275.017 169.913L274.706 169.186L274.498 167.94V167.628L275.017 166.694L275.121 166.382L275.017 166.278H274.81L274.602 166.174L274.81 166.071L275.017 165.967V165.759L274.81 165.551L274.706 165.655H274.602H274.498L274.394 165.551L274.29 165.344L274.083 165.032L273.979 164.928V164.721V164.513V164.305L273.771 164.098L273.667 163.89L273.563 163.682L273.46 163.475L273.356 163.371H273.252H273.044H272.94L272.836 163.267V163.163V162.852V162.54L272.733 162.332H272.525L272.213 162.436L272.11 162.54V162.955L272.213 163.163V163.267L272.006 163.163H271.902H271.798L271.694 163.267L271.59 163.475L271.694 163.682L271.902 163.786H272.11L272.006 163.89L271.798 163.994L271.694 164.098V164.305L271.798 164.409H272.006H272.213L272.317 164.617L272.213 164.825L271.694 165.24L271.59 165.655V165.863V166.071L271.486 166.174H271.279L271.175 166.071L271.071 165.967L270.863 165.655H270.759H270.656H270.552L269.825 165.759H269.721H269.617H269.513H269.409L269.202 165.448H269.098L268.994 165.551L268.786 165.655H268.579L268.371 165.551L268.163 165.344L267.852 165.032L267.436 164.825L267.332 164.721L267.229 164.409L267.125 164.201L266.917 164.098L266.086 163.682L265.879 163.475L265.775 163.267L265.671 162.436L265.567 162.228L265.359 161.813L265.256 161.605V161.19H265.359L265.567 161.294L265.671 161.19V160.982L265.567 160.879L265.256 160.775L265.048 160.671V160.567V160.463L264.944 160.255L264.84 160.152L264.529 160.048L264.425 159.944L264.321 159.84L264.113 159.632L264.009 159.529L263.802 159.425L263.698 159.321H263.594L263.386 159.425L263.179 159.529L262.971 159.736L262.867 160.048V160.255L263.075 160.567L263.386 160.671L263.282 159.736L263.386 160.152L263.49 160.255H263.594H263.698L263.802 160.152V160.463L263.905 160.567H264.009H264.113L264.217 160.879L264.009 161.086L263.49 161.19L263.179 161.086L262.659 160.567L262.348 160.463L262.14 160.671L261.932 161.086L261.725 161.19L261.517 161.086L261.413 160.879L261.309 160.671L261.205 160.463L260.79 160.255L259.752 160.671L259.544 160.463L259.648 160.359L260.063 160.152L260.271 160.048L260.375 159.736V159.529L260.167 159.425L259.855 159.321L259.752 159.217V159.009H259.648H259.544V158.906V158.802L259.648 158.698L259.336 158.594L259.232 158.49L259.128 158.386L259.025 158.282L258.921 158.075L258.817 157.971L258.713 157.867H258.402H258.298L257.986 157.763L257.778 157.556L257.675 157.452L257.571 157.348L257.363 157.244L257.155 157.036L256.948 156.933L256.532 156.829L256.325 156.621V156.309V155.998V155.79L256.221 155.686L256.013 155.894L255.909 156.206L255.805 156.413L255.598 157.348L255.39 157.659L255.286 157.867V158.075L255.39 158.282H255.598L255.701 158.179V157.867V157.763H255.805L256.117 157.867L256.844 157.971L257.155 158.179L257.363 158.49L257.571 159.217V159.529H257.259H257.155H257.051H256.948H256.844L256.74 159.425L256.636 159.529L256.532 159.632L256.428 159.736L255.805 160.152L255.598 160.359L255.39 160.671V160.879V161.398L255.286 161.605L255.078 161.709L254.351 161.917L254.144 162.021L254.04 162.125L253.936 162.228L253.832 162.332L253.728 162.436L253.313 162.748L253.209 162.955L253.105 163.371V163.475V163.578V163.682V163.786H253.209L253.313 163.89V163.994L253.209 164.305L252.898 164.513L252.69 165.032L252.482 165.863L252.378 165.967H252.274V166.071L252.378 166.694L252.482 166.901V167.005V167.109L252.69 167.317L252.794 167.421L252.898 167.732L253.105 167.94H253.313L253.521 167.836L253.728 167.732L254.248 167.524L254.663 167.732L255.39 168.667L256.325 169.29L256.636 169.705L256.74 170.536L256.948 170.744L257.467 170.951L257.571 171.263L257.882 171.574L257.986 171.782L258.09 171.886H258.402H258.921L259.128 171.99L259.544 172.301L259.855 172.405H259.959L260.063 172.301L260.167 172.197L260.271 172.093H260.375H260.478H260.582L260.686 171.99V171.782L261.102 171.886L261.205 171.99L261.309 172.197L261.517 172.301L261.621 172.509V172.82L261.413 173.34V173.443L261.517 173.547V173.651V173.755L261.621 173.859L261.932 174.274L262.036 174.378H262.14H262.452L262.555 174.482L262.763 174.69H263.075H263.698L263.802 174.793V174.897V175.001L263.698 175.105L263.179 175.416L263.075 175.52V175.728V175.936V176.039H262.867L263.075 176.351H262.763L261.932 176.039H261.829H261.725H261.621L261.517 176.143L261.413 176.455L261.309 176.559L260.582 176.455L259.855 176.143L259.44 176.039H259.025H258.921L258.713 176.247L258.609 176.351H258.505H258.402H258.298L257.986 176.247L257.571 176.039L257.363 175.936L256.948 176.039L256.844 176.247V177.078L256.74 178.012L256.636 178.428L256.325 178.843V179.259L256.221 179.57L255.805 180.193L255.598 180.609L255.494 180.712H255.286L254.767 180.609H254.663V180.401L254.559 180.089L254.351 179.882L254.144 179.778H253.936L253.728 179.882L253.105 180.193V180.297L253.209 180.401L253.313 180.505L253.521 181.024V181.335L253.417 181.543L253.209 181.751L253.105 181.958H252.898L252.794 182.062V182.27V182.478L252.69 182.582H252.482L252.378 182.685L252.274 183.308L252.067 183.516L251.963 183.724L251.859 184.139L252.067 184.243L252.274 184.347L252.378 184.658L252.586 184.866V184.97V185.697V185.801L252.69 185.904L252.794 186.112V186.216L253.105 186.32L256.428 188.085L257.363 188.812L257.675 188.916H258.505L259.128 189.124H259.44L259.648 188.812L259.752 188.501L260.063 188.604L260.478 188.812L260.79 189.227L260.894 189.747V189.85V190.058V190.162L260.79 190.37V190.474L260.582 190.577L260.271 190.681L260.167 190.785L260.063 190.993V191.097L260.167 191.408V191.616L260.063 191.927V192.031L260.167 192.239L260.375 192.447V192.654L260.686 192.758V192.862L260.582 193.07L260.478 193.381L260.582 193.589L260.686 193.9V194.212V194.42L260.582 194.627L260.063 195.146L259.855 195.25H259.648H259.336H259.128L258.921 195.458V195.562V195.666V195.769V195.873L258.817 196.081L258.609 196.393L258.505 196.496V196.6L258.609 196.808V196.912L258.298 198.158V198.262L258.402 198.366H258.505H258.609V198.573V198.677V198.781L258.713 198.885L258.817 198.989H259.025H259.128L259.336 199.196L259.648 199.715L259.855 199.923L260.271 200.131L260.478 200.754L260.686 201.169L260.894 201.065L260.998 200.858L261.205 200.754L261.413 200.858V201.169L260.79 202.831L260.478 203.35L260.375 203.661V203.973L260.478 204.285L260.686 204.388L261.517 204.7H261.621H261.725L261.829 204.596L261.932 204.492H262.14H262.348L263.179 204.804L263.282 204.908H263.386H263.698L263.802 205.011V205.115L263.698 205.219L263.594 205.323L263.282 205.634L262.555 206.361L262.348 206.673V207.4L262.244 207.815V208.127V208.231L262.452 208.542L262.555 208.75L262.867 209.373L262.971 209.58L263.282 209.684L263.386 209.788V209.996V210.307V210.619L263.282 210.827L263.179 211.034L263.075 211.242L262.971 211.45V211.657L263.075 212.073V212.28V212.592L263.179 212.903L263.282 213.215L263.386 213.63L263.282 213.942L262.971 214.15L263.386 214.253L263.49 214.357L263.594 214.876L263.802 215.396L263.905 215.707V215.811L263.802 216.019V216.123V216.226L263.905 216.953L264.009 217.161L264.217 217.472L264.009 217.576L264.113 217.888L264.632 218.615L264.736 218.822L264.84 219.134V219.445L264.632 219.757L264.425 219.653L264.529 219.861V219.965L264.425 220.069V220.276V220.484L264.632 220.795V221.003L264.736 221.834L264.632 222.249L264.321 222.457L264.113 222.353H264.009L263.905 222.457V222.665L263.698 222.561L263.282 222.249L263.075 222.145L262.971 222.042V221.73L262.867 221.522H262.659L262.555 221.73L262.659 222.042L262.867 222.353L263.075 222.457H263.282L263.49 222.561L263.802 222.872L264.009 223.288L264.217 224.43L264.425 224.949L264.529 225.053L264.736 225.261L264.944 225.676V226.195L264.84 226.403L264.632 226.507H264.529H264.425L264.321 226.403V226.299V226.195L264.217 226.299L264.113 226.507V226.611H263.905L263.594 226.403L263.075 225.988L262.659 225.884H262.555L262.452 225.78L262.348 225.676L262.244 224.638L262.14 224.43H262.036V224.638L261.829 225.053V225.261L261.932 225.468L262.14 225.884M52.5741 216.434L52.1587 216.849L51.951 216.953L51.6395 216.849L51.4318 216.642H51.6395L52.1587 216.746L52.0549 216.538L52.1587 216.434H52.3664H52.5741ZM52.5741 216.434L52.8857 216.538V216.642V216.746L52.9895 216.953H53.1972L53.5088 217.057H53.7165L53.8203 216.746V216.538L53.9242 216.226L54.028 216.019L54.1319 215.811L54.4434 215.707L54.5473 215.915V216.226L54.3396 216.33L54.2357 216.434V216.746L54.3396 217.057L54.4434 217.265L54.7549 217.369L54.9626 217.265L55.1703 217.161H55.378V217.265L55.2742 217.369V217.472L55.378 217.576H55.5857L55.8973 217.472L56.105 217.265L56.5204 216.849L56.8319 216.746H57.1435H57.2473L57.455 216.953H57.5589H57.6627H57.8704L58.7012 217.265L59.1166 217.369L59.4281 217.161L59.6358 217.057L59.8435 216.953H60.0512L60.2589 217.057L60.4666 217.161H60.6743L60.882 217.057L60.9858 216.849L61.0897 216.953L61.1935 217.161V217.369L61.0897 217.576L60.882 217.68L60.6743 217.576L60.4666 217.369L60.2589 217.265L59.8435 217.369L59.532 217.576L59.0127 218.303L58.805 218.096L58.7012 217.992H58.5973H58.4935H58.3896H58.2858L58.1819 217.888L57.9742 217.68L57.7666 217.576H57.5589L57.7666 217.784L57.5589 217.888L57.3512 218.096L57.1435 218.407L57.0396 218.615V218.926V219.03L56.9358 219.238V219.342V219.445V219.653L56.8319 219.965L56.6242 220.484V220.692L56.7281 220.899L57.0396 221.418L57.1435 221.522L57.3512 221.418L57.6627 221.211L57.9742 221.003L58.0781 220.795L58.1819 220.692L59.1166 220.588V220.484V220.38L59.2204 220.276H59.3243H59.4281H59.532H59.6358V220.38H59.4281L59.3243 220.588L59.2204 220.795L59.1166 220.899H58.5973H58.3896L58.1819 221.107L57.9742 221.73L57.7666 222.042L57.5589 222.145L57.455 222.249L57.3512 223.08L57.2473 223.391L57.0396 223.911V224.118L57.1435 224.43L57.3512 224.534H57.5589L58.1819 224.326H58.3896L58.5973 224.43H58.9089L59.6358 224.326H59.9474L60.4666 224.43H60.7782L61.0897 224.222L61.2974 224.118H61.6089L62.1282 224.222L62.4397 224.118L62.959 223.807L63.2705 223.703H63.3744L63.5821 223.495H63.6859L63.9975 224.015L64.4128 223.807H64.5167L64.6205 223.911L64.5167 224.015L64.4128 224.118L64.309 224.222H63.9975L63.1667 224.638L62.4397 224.949L62.0243 225.261L61.4012 225.468L61.1935 225.572H60.9858L60.6743 225.468H60.5705L60.3628 225.572L60.0512 226.091L59.8435 226.299L59.532 226.507L59.2204 226.714L58.9089 226.818L58.7012 226.922L58.1819 227.337L57.9742 227.441L57.7666 227.649L57.3512 228.376L57.2473 228.584L57.5589 228.48L58.1819 227.961L58.3896 227.857L59.1166 227.649H59.2204V227.857L59.1166 227.961L58.9089 227.753L58.2858 228.168L57.7666 228.48L57.0396 228.687L56.9358 228.791V228.895L57.0396 228.999L57.7666 229.207L58.1819 229.103H58.3896L58.4935 229.207L58.3896 229.311L57.9742 229.414L57.7666 229.518V229.622V229.726L57.8704 230.037L57.9742 230.453V230.557L58.0781 230.764L58.1819 230.66L58.3896 230.453V230.764L58.4935 230.868L58.7012 230.972L58.805 231.076L58.9089 231.18L59.3243 231.283L59.4281 231.387H59.2204L59.1166 231.491L58.9089 231.699L58.0781 232.322L57.8704 232.53V232.737L58.0781 232.945H58.1819L58.4935 232.737H58.5973H58.7012V232.53V232.218V232.114V232.01L58.805 231.907H59.0127L59.1166 231.803L59.3243 232.01L59.2204 232.218L59.0127 232.53L58.9089 232.945L59.3243 232.737L59.4281 232.633V232.426V232.322L59.532 232.218L59.6358 232.322L59.7397 232.426V232.53L60.2589 232.322H60.3628L60.4666 232.426L60.882 233.464L60.7782 233.568L60.4666 233.672L59.9474 233.568H59.7397L59.8435 233.776L59.9474 233.983H60.0512H60.1551H60.2589L60.3628 234.087L60.4666 234.191V234.295L60.5705 234.399H60.882L61.1935 234.295H61.4012V234.606L60.9858 234.814L60.7782 235.022L61.0897 235.437L60.9858 235.541L60.882 236.06L60.7782 236.268L61.2974 235.956H61.4012L61.6089 235.853H61.7128L61.6089 236.06L61.5051 236.372L61.6089 236.683L61.8166 236.787L61.9205 236.476L62.0243 236.579V236.683V236.787V236.891L62.1282 236.995L62.232 237.099L62.3359 237.202V237.306H62.232L61.7128 237.722L61.8166 237.929V238.241V238.864V238.968L61.6089 239.176V239.279V239.383L61.7128 239.695V239.902V240.214V240.525L61.6089 240.733L61.1935 241.356L61.0897 241.46L60.9858 241.772L60.882 242.083V242.498V242.602L60.7782 242.706L60.6743 242.81L60.5705 242.914H60.4666V243.225L60.3628 243.433L60.2589 243.641L60.1551 243.848L60.0512 244.264V244.575V244.679H60.1551H60.2589V244.783L60.0512 245.095V245.198L59.9474 245.821L59.7397 246.444V246.548V247.379L59.6358 247.587L59.532 247.794L59.4281 248.002L59.3243 248.106L59.2204 248.21V248.314V248.625V249.144L59.1166 249.352L59.0127 249.56V249.664L58.805 249.975L58.9089 250.183V250.702V250.91H59.0127L59.532 250.287L59.6358 250.494V250.598V250.702V250.806H59.532H59.4281V250.91L59.532 251.117L59.6358 251.325V251.429L59.4281 251.533V251.429L59.3243 251.325L59.2204 251.221L59.1166 251.117L59.4281 252.156L59.532 252.779L59.4281 252.987L59.532 253.713L59.7397 254.025H59.8435L59.9474 253.921V253.817L59.8435 253.713L59.6358 253.506L59.7397 253.402V253.298V253.194V253.09H59.8435L60.0512 253.194L60.1551 253.298L60.2589 253.402V253.506L60.3628 253.61L60.4666 253.713H60.5705H60.7782L60.9858 253.61L61.2974 253.506L61.6089 253.61L60.2589 254.129L60.0512 254.233L59.9474 254.44V254.752L60.0512 255.479V255.583L60.3628 255.998L60.5705 256.206H60.7782H60.882L61.0897 256.309L61.4012 256.621L61.6089 256.725H61.8166H62.5436L62.7513 256.829L62.959 257.036L63.0628 257.244L63.1667 257.348L63.2705 257.452V257.659V257.867L63.4782 257.971L63.1667 258.179L62.959 257.971L62.6474 257.244L62.4397 257.036H62.232L62.0243 257.14H61.8166L61.4012 257.036L61.1935 256.933L60.9858 256.621H60.6743L59.9474 256.725L59.8435 256.933V257.348V258.179L60.0512 257.971L60.2589 257.659L60.4666 257.452H60.6743L60.5705 257.659L60.3628 258.075L60.1551 258.698V258.802V258.906H60.2589L60.3628 258.802L60.4666 258.594H60.5705H60.6743L60.7782 258.698V258.802L60.6743 258.906V259.009V259.113L60.7782 259.321V259.425V259.529L60.6743 259.944H60.7782V260.048V260.152L60.6743 260.255L60.5705 260.152V260.567V260.671L60.4666 260.879L60.2589 261.19L60.1551 261.294L60.2589 261.398L60.4666 261.294V261.19V261.086H60.5705L60.6743 261.294V261.502V261.605V261.709L60.7782 261.917L60.882 261.813L60.9858 261.605L60.882 261.398L61.0897 260.982L61.2974 260.671L61.5051 260.463L61.6089 260.775V260.879L62.1282 260.359L62.232 260.048L62.0243 259.84L62.1282 259.632V259.217L62.3359 259.009L62.5436 258.49H62.6474L62.5436 259.425L62.6474 259.632L62.7513 259.736L62.8551 259.84L62.7513 260.152L62.8551 260.255L62.7513 260.567L62.8551 260.775L63.1667 260.671L63.4782 260.567H63.6859L63.5821 260.879H63.4782L62.8551 261.086L62.5436 261.19H62.3359V261.294H62.7513L62.6474 261.502H62.4397H62.232L62.0243 261.605V261.917L61.9205 262.021L61.7128 261.813L61.5051 262.228L61.7128 262.54L62.1282 262.748L62.3359 262.644H62.4397H62.5436V262.748V262.852V262.955L62.6474 263.163L62.7513 263.267L63.0628 263.371L62.959 263.475L62.8551 263.786V264.098L62.959 264.409L62.7513 264.305L62.6474 264.201V263.994L62.7513 263.786L62.3359 263.267L62.232 263.163L62.0243 263.475H61.9205L61.7128 263.371H61.6089L61.4012 263.475L61.2974 263.682L61.1935 263.89V264.513V265.032L61.2974 265.448L61.5051 265.655L61.8166 266.382L61.9205 266.59L62.0243 266.694L62.4397 266.59L62.5436 266.694L62.6474 266.901L62.7513 267.109V267.317L62.8551 267.524L63.0628 267.628L63.1667 267.732L63.0628 267.94L62.8551 267.732L62.4397 267.109L62.232 266.901H61.9205L61.7128 267.109L61.6089 267.421L61.5051 267.732V268.251V268.459L61.6089 268.667L61.7128 268.771L61.8166 268.874V269.082V269.186V269.29V269.394V269.497L61.9205 269.601H62.0243H62.1282H62.232L62.4397 269.913L62.5436 270.017H62.7513L62.6474 270.224L62.7513 270.432L62.959 270.536L63.1667 270.64H63.5821H63.7898L63.9975 270.744L63.8936 270.951L63.9975 271.367V271.678L63.7898 271.886H63.6859V271.678L63.8936 271.574L63.6859 271.367L63.4782 271.263L63.2705 271.159H63.0628H62.8551H62.7513L62.6474 271.055L62.5436 270.951V270.847L62.4397 270.744L62.232 270.64L62.1282 270.744V270.847V270.951L62.232 271.055L62.1282 271.159L62.0243 271.47L62.3359 271.574L62.5436 271.886L62.6474 272.924V273.028L62.7513 273.132V273.236V273.34V273.443L62.8551 273.651L63.0628 273.859L63.1667 274.066L63.2705 273.963L63.3744 273.859L63.4782 273.755H63.5821V273.963L63.4782 274.066L63.2705 274.17L63.1667 274.274V274.482V274.689L63.2705 274.793H63.4782L63.2705 275.105V275.416L63.8936 276.351L63.9975 276.663L64.1013 277.078L64.2051 277.182L64.4128 277.389L64.5167 277.493V277.805L64.6205 277.909L64.7244 278.116V278.324L64.6205 278.532L64.5167 278.636V278.739L64.6205 278.947L64.7244 279.155L64.8282 279.259L64.7244 279.466V279.674L64.8282 279.882L64.9321 279.985L65.1398 280.089H65.5552L65.7629 280.193L65.2436 280.401H65.0359H64.8282H64.7244V280.505L64.8282 280.712L65.2436 281.232L65.4513 281.543L65.3475 281.855L65.4513 282.062L65.3475 282.27L65.2436 282.478V282.582V282.789L65.5552 283.101L65.659 283.308L65.9706 284.035L66.1783 284.243L65.9706 284.347L65.7629 284.243L65.5552 284.035L65.3475 283.931L65.4513 284.139L65.659 284.347V284.451V284.658L65.8667 285.074V285.385L66.0744 285.801L66.1783 286.008V286.216L66.0744 286.424L66.1783 286.631L66.2821 286.943V287.254L66.1783 287.566L66.0744 287.358H65.9706V287.462L66.0744 287.67L65.9706 287.774L66.0744 287.877L66.386 288.085L66.1783 288.397L66.0744 288.604V288.812L66.1783 289.331V289.435L66.0744 289.643L66.1783 289.954L66.2821 290.37L66.386 290.577L66.4898 290.474V290.681L66.386 290.993L66.2821 291.408L66.386 291.72L66.5937 291.927L66.6975 292.031V292.239V292.343L66.5937 292.55V292.654V292.758L66.6975 293.07L66.9052 292.966H67.1129L67.2167 293.07L67.3206 293.277V293.381H67.2167L67.1129 293.277V293.07L66.6975 293.277L66.5937 293.381V293.485L66.6975 293.693L66.9052 293.796L67.1129 293.9H67.3206L67.2167 294.004L67.1129 294.108V294.212L67.2167 294.316L67.3206 294.42L67.4244 294.523H67.5283H67.2167L67.1129 294.42L66.9052 294.108L66.8014 294.004L66.6975 293.9V294.004V294.316V294.42L66.8014 294.523L66.9052 294.627L67.1129 295.146L67.2167 295.666L67.3206 295.873L67.5283 295.977L67.736 296.081L67.6321 296.185L67.5283 296.289L67.4244 296.393V296.6L67.6321 296.704V296.912V297.016L67.9437 298.054L68.0475 298.366V298.469L68.1514 298.573H68.2552H68.3591H68.4629L68.5668 298.781V299.3L68.6706 299.923V299.508L68.7745 299.196L68.8783 298.989L69.1899 298.885L69.086 299.092L68.9822 299.196L68.8783 299.3V299.508V300.235V300.339L68.7745 300.442L68.6706 300.546V300.65L68.7745 300.754H68.8783L68.9822 300.962L69.086 301.065H69.2937H69.5014V301.169H69.1899V301.481L69.3976 301.792L69.6053 302L70.3322 302.623L70.5399 302.935L70.9553 303.765L71.0591 304.077V304.596V304.804L71.163 304.908H71.3707H71.5784H71.6822L71.4745 305.011V305.115L71.5784 305.219L71.6822 305.634L71.7861 305.842L71.8899 306.05L71.9938 306.154L72.0976 306.05L72.513 305.738H72.6169L72.7207 305.634H72.9284H73.3438V305.738L72.7207 305.946L72.4092 306.05L72.3053 306.258V306.361L72.2015 306.465L72.0976 306.569V306.777V306.984L72.2015 307.088L72.4092 307.4L72.3053 307.711L72.513 307.919L72.7207 308.023L72.8246 307.919L73.6553 307.4V307.504L73.5515 307.607V307.711V307.815L73.6553 307.919L73.1361 308.023L73.0322 308.127L72.9284 308.231L72.8246 308.438L72.7207 308.646V308.75H72.8246H73.24H73.3438L73.4476 308.854H73.5515H73.6553H73.863H73.9669L74.4861 309.061L74.59 309.165L74.9015 309.58L75.0054 309.684H74.9015L74.7977 309.477L74.6938 309.373L74.2784 309.165L74.0707 309.269H73.863L73.7592 309.165H73.6553H73.5515H72.8246L73.1361 309.58L73.3438 309.788L73.6553 309.892H73.9669L74.1746 309.996L74.2784 310.204L75.0054 312.592L75.1092 312.488L75.2131 312.696V312.8L74.9015 313.007L74.7977 313.111L74.6938 313.319L74.59 313.734L75.2131 313.942L75.3169 314.046L75.4208 313.319L75.5246 313.423H75.7323L75.8362 313.526L75.94 313.734L75.8362 314.15V314.357L75.94 314.565L76.4592 314.876V314.98L76.5631 315.084L76.6669 315.499L76.7708 315.603H76.9785L77.1862 315.499L77.3939 315.396L77.4977 315.292L77.6016 315.188L78.017 314.98L78.1208 314.876V315.084L78.2247 315.188H78.3285H78.4324V315.292H78.3285H78.2247H78.1208H77.9131L77.8093 315.396L77.7054 315.499L77.6016 315.707L77.4977 315.603H77.3939H77.29L77.1862 315.707L77.0823 315.811V316.019L76.9785 316.123L76.7708 316.019L76.8746 316.226L77.0823 316.434L77.4977 316.642L77.6016 316.746H77.7054H77.8093H77.9131L78.017 316.849L78.2247 317.161L78.4324 316.953L78.5362 316.849L78.7439 316.953L78.9516 317.161L79.0555 317.369L79.1593 317.888L79.2631 318.096L79.1593 318.199V318.303L79.2631 318.407L79.367 318.511H79.5747L79.6785 318.407H79.7824L79.9901 318.511V318.615L79.5747 318.719L79.4708 318.926V319.238L79.5747 319.549V319.653L79.6785 319.757H79.8862L80.0939 319.653V319.445V319.238V319.03L80.3016 318.926V319.03V319.134V319.342L80.4055 319.238H80.5093L80.6132 319.342V319.445L80.8209 319.549L81.3401 320.172H81.0286V320.276L81.1324 320.484H80.9247L80.8209 320.172L80.717 319.861L80.5093 319.653V319.965L80.717 320.484L80.8209 321.003L80.9247 321.107L81.0286 321.211V321.315V321.626V321.834L81.1324 321.938L81.2363 322.145V322.665L81.3401 322.872L81.444 322.976L82.2748 323.288L82.3786 323.391H82.1709H81.8594L81.5478 323.288L81.3401 323.184L81.2363 323.495L81.3401 323.807L81.6517 324.326L81.7555 324.534V325.261L81.8594 325.364L81.9632 325.572V325.676V325.78V326.091V326.195L82.0671 326.507L82.4825 327.026L82.6901 327.337L83.1055 327.857L83.2094 328.272L83.4171 328.687L83.5209 329.518L83.8325 330.557L84.0402 330.972L84.2479 330.453L84.3517 330.349L84.5594 330.557H84.3517V330.66L84.5594 330.868L84.6633 331.076H84.7671H84.9748L84.871 331.18L84.6633 331.283H84.4556L84.3517 331.18H84.2479V331.283V331.387H84.144H84.0402V331.491V331.699L84.144 332.426V332.737L84.4556 333.568V333.776V334.087L84.5594 334.191H84.3517M84.3517 334.191V333.88L84.2479 333.464V333.776L84.3517 334.191ZM84.3517 334.191L84.4556 334.399L84.3517 334.503L84.4556 334.71L84.5594 334.918L84.6633 335.126L84.871 335.956L84.9748 336.476L85.0787 337.099L85.1825 337.202L85.2864 337.306V337.514V337.826L85.3902 338.033L85.494 338.137L85.5979 338.241L85.3902 338.656L86.0133 341.148L86.4287 341.252L86.9479 341.045L87.571 340.941L87.4672 341.148L87.2595 341.252L87.0518 341.356H86.9479H86.8441L86.6364 341.564L86.5325 341.668H86.4287L86.1171 341.46V341.668L86.221 341.772L86.3248 341.875L86.4287 341.979V342.083V342.395V342.498L86.6364 342.706L86.7402 342.914L87.6749 345.302L87.9864 345.718L88.0903 345.925V346.133V346.237L88.1941 346.341L88.298 346.444V346.548V346.652L88.4018 346.964L89.2326 348.314L89.4403 348.833L89.5441 349.144V349.352V349.56L89.648 349.456L89.7518 349.352L89.8557 349.248H90.0634V349.352L89.9595 349.767L90.1672 350.39L90.5826 351.429L90.6865 351.844L90.7903 352.052L90.998 352.26V352.156L91.1019 352.052H91.2057V352.156L91.3096 352.26H91.4134L91.5173 352.363L91.9326 352.779L91.7249 352.363V352.156L92.2442 351.74L92.4519 351.948L92.5557 352.052L92.348 352.156H91.9326V352.26L92.0365 352.571L92.1403 352.779L92.348 352.883L92.5557 352.987H92.7634H92.8673L93.075 352.779L93.2827 352.675L93.1788 352.883V353.09V353.194L93.3865 353.298V353.402L92.4519 353.194H92.2442L92.4519 353.61L92.7634 353.921V354.025L92.9711 353.921H93.075L94.6327 355.686L94.9443 356.102L95.6712 357.763V357.971L95.8789 358.282L95.9827 358.49V358.802L96.0866 358.905L96.2943 359.009H96.502L96.7097 359.113L96.8135 359.321L97.0212 359.736L97.2289 360.255L97.3328 360.463H97.5405L97.6443 360.671V360.775L97.5405 360.878V360.982V361.086L97.6443 361.19L97.7482 361.294L98.8905 363.994L99.5136 366.071L99.7213 367.109L99.929 367.628L100.344 367.836L100.241 367.94L100.033 368.044V368.147V368.251L100.137 368.355L100.241 368.459V368.563L100.344 368.771L101.071 370.328L101.175 370.847L101.279 371.055L101.591 371.367L101.694 371.574L101.798 372.093V372.405L101.902 372.613L102.317 373.236L102.525 373.755L102.733 374.793L102.941 375.313L103.044 375.52L103.148 375.728L103.356 375.832L103.564 375.728L103.668 375.52V375.313L103.46 374.897L103.564 375.001L103.668 375.105L103.771 375.313H103.875H103.979H104.083V375.416V375.52L103.979 375.624V375.728L103.875 375.936L103.252 376.247V376.455L103.356 376.559V376.663V376.87V377.078L103.771 378.116L103.979 378.428M103.979 378.428L104.187 378.636L104.083 378.428V378.116V377.597L103.979 377.389L103.875 377.182L103.771 376.974L103.875 376.663L103.979 376.974L104.083 377.078L104.187 377.182H104.291L104.394 377.909L104.602 378.012L104.498 378.22L104.602 378.739L104.81 379.051L105.018 378.843L105.121 379.051L105.641 379.57L105.744 379.778L106.056 380.297L106.16 380.505V380.712L106.056 380.816L105.952 380.92V381.128V381.232L106.056 381.439V381.543V381.647V381.855V381.958L106.16 381.855L106.264 381.958L106.368 382.166V382.789L106.471 383.101V383.308L106.264 383.62L106.368 383.724L106.471 383.828L106.679 383.724L106.887 383.828L107.095 384.035L107.302 384.139L106.991 384.555L106.783 384.658L106.471 384.555H106.368L105.744 384.451L105.537 384.347L105.433 384.139L105.641 382.997L105.744 382.789L105.848 382.685L105.952 382.478V382.27L105.744 382.062L105.641 381.855L105.537 381.232V381.024V380.712V380.505L105.433 380.297L105.225 379.985L105.121 379.778L104.914 379.882V380.089L105.225 380.505L105.121 380.816L105.225 381.647V381.958H105.121L104.81 379.882L104.706 379.674L104.602 379.778H104.498L104.394 379.882H104.291H104.187V379.778V379.57V379.362L104.083 379.155L103.979 379.362V379.466L103.875 379.362L103.771 379.259V379.155V378.947H103.875L104.187 379.051L104.291 378.947L104.187 378.739L103.979 378.428ZM103.979 378.428L103.771 378.324L103.564 378.428V378.636L103.668 379.259L103.771 379.362L104.083 380.297L104.291 382.27L104.187 382.582L104.498 384.347L105.121 386.528L106.16 388.812H106.264V388.604L105.848 387.67V387.566H106.056L106.264 387.981L106.471 388.708H106.575V388.604V388.501L106.679 388.397L106.575 388.916M106.575 388.916V389.124M106.575 388.916V389.02V389.124M106.575 388.916V388.812V389.124M106.575 389.124L106.887 389.85L106.991 390.266L107.198 390.474V390.577V390.785V390.993L107.302 391.2L107.406 391.304V391.097L107.51 390.889L107.614 390.785L107.821 390.681V390.889V390.993L107.718 391.097L107.821 391.304L107.925 391.2L108.029 390.785L108.133 390.681L108.445 390.785H108.652L108.756 390.681L108.86 390.577L108.964 390.474H109.171H109.275V390.577L109.171 390.681H108.964L108.86 390.785H108.964L109.068 390.889L109.171 390.993L108.445 390.889L108.341 390.993L108.237 391.097L108.133 391.304V391.408L108.237 391.512H108.341L108.548 391.408H108.756L108.652 391.512L108.445 391.616H108.237L108.029 391.304H107.925L107.821 391.408L108.029 391.72L109.068 392.654L109.275 392.862L109.691 393.589L110.106 394.004L110.21 394.316L111.145 395.354L111.352 395.769L111.975 396.393L113.014 397.846L113.429 398.262L114.883 399.3L115.091 399.508L116.337 400.65L116.545 400.754L116.856 400.858L117.168 401.065L117.272 401.169L117.479 401.377H117.583L119.245 401.896L119.972 402L120.699 401.896L120.595 401.481L121.01 401.169L121.633 400.962L122.983 400.754L123.191 400.65L123.503 400.235L123.71 400.027L126.099 398.573L126.618 398.366H126.826L126.93 398.262L127.137 397.535L127.241 397.431L127.553 397.119L127.656 397.016L127.76 396.912L127.968 395.562L127.864 395.146L127.553 394.731H127.864L127.76 394.627V394.523L127.968 394.316L128.072 394.004L128.176 393.9L128.383 393.796L128.591 393.693L128.695 393.589L128.591 393.277L128.487 393.485L128.383 393.589H128.176L127.968 393.693L128.072 393.485V393.173V392.343L128.176 392.135L128.591 391.304L128.903 390.993L130.668 389.539L131.083 389.227L131.603 389.02L132.018 388.916L133.68 388.708H133.887L134.095 388.604L134.199 388.501L134.303 388.293L134.51 388.189H135.134L135.341 388.085L135.445 387.981L135.549 387.877L135.757 387.774L136.276 387.67L136.587 387.462L136.795 387.358L137.211 387.254H137.314H137.418H137.522H137.626L137.834 387.047L137.937 386.943H138.353L138.768 387.047L139.184 387.151L139.495 387.254H139.599H140.014L140.43 387.047H140.638L140.845 387.151H141.053L141.261 387.254L141.988 387.358L142.818 387.877L143.649 388.604L143.857 388.708L144.065 388.604L143.857 388.397L142.922 387.774L142.714 387.566L142.611 387.462V387.358L142.507 387.254L142.403 387.151V387.047V386.943L142.507 386.839V386.735L142.403 386.631L142.091 386.528L141.78 386.631L141.468 386.839L141.157 386.943H139.495L138.976 386.839L138.561 386.631L137.522 385.697L137.211 385.281L137.003 384.866V384.555L137.107 384.035L137.211 383.412L137.314 383.101L137.418 382.893L137.522 382.685L137.626 382.582L137.73 382.478L137.834 382.374V382.27V382.166V382.062L138.561 381.024L139.08 380.609L139.287 380.401L139.391 380.089L139.599 379.882L139.807 379.362L140.534 378.324L141.053 377.805L141.572 377.493L141.261 377.286L141.157 376.87L141.053 376.039V375.832V375.624L141.157 375.52H141.364L141.468 375.416V375.313V375.105V375.001L141.676 374.793L141.884 374.586L142.611 374.17L142.922 373.963L143.13 373.859H143.338L143.649 373.963H143.961L144.584 373.859L144.895 373.755V373.651V373.547H145.415L145.622 373.443L145.83 373.547V373.651L145.415 373.755H145.311H145.207H145.103V373.859V373.963H145.207H145.415L147.699 374.482H147.907V374.378L147.699 374.274L147.388 374.17H147.076H146.972L146.868 374.066H146.765L146.557 373.963H146.349H146.141H145.934L146.038 373.755L146.141 373.651L147.699 373.859L148.011 374.066V374.378L148.218 374.482H148.426L148.634 374.378H148.842L148.945 374.274L149.049 373.132L148.945 370.951L148.842 370.432V368.355V367.628L148.738 365.863L148.842 365.448L148.945 365.136V363.163L148.738 361.813V360.775V360.671H148.634L148.322 360.463H148.115L147.907 360.567L147.803 360.775L147.699 360.878L147.076 361.294L146.868 361.398H146.765L146.868 361.19L147.595 360.463L147.699 360.359L147.803 360.255H147.907H148.011H148.115H148.426H148.53V360.152L148.426 359.529L148.322 359.425H148.115L148.218 359.529V359.632V359.736L148.115 359.84H148.011L147.907 359.321L147.595 358.386L147.491 357.867V357.659L147.595 357.14V356.621L147.803 355.375L147.907 355.167L148.011 355.063L148.115 354.544L148.218 353.921L148.53 353.194L148.634 352.883L148.738 352.675V352.571V352.156V352.052L148.842 351.844L149.153 351.429L149.568 350.598L149.672 350.494L149.88 350.287L150.607 349.144L150.192 349.352L149.88 349.456L149.776 349.352L149.88 349.248L150.503 348.937L150.711 348.625L151.126 347.898L151.438 347.691L151.542 347.587L151.853 347.067L151.957 346.86L152.372 346.133L152.684 345.406V345.198V344.887L152.788 344.264L152.892 344.056L153.099 343.745L153.203 343.537L153.307 343.122L153.515 342.498L153.619 341.564L153.722 340.006L153.93 339.072V338.552V338.449L154.138 338.241L154.242 338.137L154.138 337.722V337.618L154.242 337.41L154.345 337.202L154.449 336.995V336.683L154.242 336.787H154.138L154.242 336.579V336.372H154.345V336.06L154.449 335.437V335.126V334.814L154.345 334.295L154.242 334.087H154.034V334.191L153.93 334.295L153.722 334.087L153.515 333.983L153.411 333.88V333.672H153.307H153.203H153.099L152.995 333.568L152.892 333.464H152.788H152.269L151.957 333.36H151.645L151.438 333.257L151.334 333.153L151.23 332.841L150.815 332.322L150.607 332.01V331.699L150.918 331.283L151.126 331.18V330.972V330.66L151.23 330.764L151.334 330.868L151.438 330.972V331.076V331.387V331.491L151.645 331.595L151.749 331.18V330.141L151.853 330.245L152.269 330.764L152.476 331.18L153.099 331.803L153.515 332.841L153.93 333.776H154.034L153.93 333.257L153.619 332.633L153.203 331.803L152.892 330.868L152.788 330.66L152.684 330.453L152.788 330.141L152.995 329.726V329.103L152.892 328.584L151.957 326.611L151.749 326.091L151.438 324.534V323.911L151.542 323.495L151.334 323.288L151.126 323.391L150.918 323.599L150.711 323.807L150.399 323.911V323.807L150.503 323.599L150.711 323.495L150.918 323.288H151.022H151.438L151.542 323.08L151.853 322.353L152.061 322.145V321.522V320.484L152.165 319.757V319.445V319.342V319.238V319.134L152.061 319.03H151.957L151.645 319.134H151.542L151.438 319.03L151.645 318.926L151.749 318.822L151.853 318.719V318.511L151.749 318.407L151.645 318.303L151.542 317.888L151.438 317.784L151.126 317.576L151.022 317.472L150.918 317.369V317.265V316.642L150.503 314.565V314.253L150.399 313.838L150.295 313.319V312.28L150.711 310.827L150.815 309.58V309.477L151.23 308.646L151.334 308.438L151.542 308.231L151.957 307.815L152.061 307.607L152.269 307.192L152.372 306.984L152.165 306.881V306.673H152.372V306.465L152.892 305.115L153.099 304.804L154.138 303.869L154.553 303.558L155.072 303.454L155.176 303.35L155.384 303.142L155.488 303.038H155.592H155.696H155.799L156.215 302.831L156.422 302.727L156.526 302.519H156.63L156.734 302.727H156.942L157.149 302.623L157.357 302.519H157.876V302.415V302.312L157.98 302.208H158.084H158.188H158.292H158.915L159.226 302.312L159.434 302.415L159.746 302.935L159.849 303.454V304.596L160.057 304.492L160.161 304.181L160.473 303.246L160.888 302.312L160.992 301.792L160.888 301.273L160.68 300.754L160.784 300.858V300.962L160.888 300.858L160.784 300.754L160.888 300.65L160.992 301.065V301.273V301.481L160.888 302.415V302.623L160.992 302.831L161.096 303.038L161.303 303.142L161.407 303.246L161.823 303.558L161.926 303.765L162.03 303.869L162.134 303.973H162.238L162.342 303.869V303.765L163.692 302.935V302.831L163.588 302.727L163.484 302.623V302.415L163.796 302L164.003 301.792L164.523 301.481L165.146 300.858H165.353L165.457 300.65V299.923L165.561 299.715L165.769 299.3L165.873 298.573L166.184 297.742L166.288 297.119L166.6 296.808L166.703 296.6V296.393L166.6 296.289V296.185L166.703 295.977L167.43 295.562H167.638H167.846H168.053L168.261 295.666L168.365 295.562L168.469 295.458H168.677L168.884 295.562L168.988 295.666V295.769L168.884 295.873L168.78 295.977L169.507 295.769H169.715L170.234 295.873H170.442L170.338 295.562H170.546L170.65 295.666L170.754 295.769L170.65 295.977L170.857 296.081H171.273L171.48 296.185L171.688 296.081L172 296.185L172.207 296.393H172.415H172.519L173.038 296.289L173.246 296.081L174.284 295.562L174.492 295.458L174.7 295.354H175.219H175.323L175.427 295.146H175.531H175.738H175.842L176.05 295.043L176.257 294.835L176.465 294.627H176.881L177.192 294.523L177.608 294.212L178.231 293.9H178.438L178.646 293.796L179.373 293.07L179.996 292.862L179.892 292.758L179.788 292.55L179.684 292.343L179.788 292.239H179.892L179.996 292.447H180.1H180.204V292.343V292.239V292.135L180.515 291.512L180.619 291.097L180.723 290.37L180.931 289.747V289.124V288.501L180.827 288.189L180.723 287.877L180.827 288.293V288.708V289.124L180.723 289.331L180.515 289.227H180.411H180.308H180.204H180.1L179.996 289.124L179.892 289.02L179.477 288.916L179.269 288.708L179.165 288.397V288.085L179.684 287.151L179.788 286.735L179.892 286.528L180.308 286.216L180.619 285.697L180.827 285.489L181.242 285.281L181.346 285.074L181.554 284.658L181.865 284.347L184.981 282.478L185.5 282.374L186.019 282.062L186.538 281.958L186.746 281.855L186.954 281.751L187.162 281.647L187.265 281.855H187.369L187.992 281.439H188.096L188.304 281.335H188.408L188.615 281.024L188.927 280.816L189.342 280.609L189.758 280.297L190.796 279.882L191.108 279.674L191.316 279.57H191.523L191.731 279.466L191.627 279.259L191.316 278.947H191.731H191.835L192.042 278.843L192.354 278.739L192.458 278.636V278.532L192.354 278.428L192.146 278.324L191.835 278.22L191.731 278.012L191.835 277.909H192.146L192.25 278.012V278.116V278.22H192.354H192.458L192.562 278.116H192.666L192.977 277.909L193.704 276.974L193.912 276.663L194.016 276.247L194.119 276.039L194.431 275.832V275.624V275.313V275.105L194.535 275.313V275.416H194.639L194.846 275.209L195.366 274.897L195.469 274.793H195.573L195.781 274.586V274.482L195.885 274.378L196.093 274.066L196.196 273.963L196.612 273.651L198.689 272.405L202.531 270.64L202.947 270.328L203.05 269.809L203.154 269.705V269.601V269.497L203.258 269.394L203.362 269.29L203.673 269.082L203.881 268.874L204.4 268.459L204.504 268.251L205.127 267.628L205.647 267.213L205.854 267.005L205.543 267.213L205.231 267.524L204.92 267.732H204.608L204.504 267.628L204.608 267.421H204.92H205.023L205.127 267.317L205.335 267.109H205.439L205.647 267.005L205.854 266.798L206.166 266.382L206.789 265.967L206.893 265.863L206.997 265.655L207.1 265.448L208.243 264.201L208.347 263.89L209.385 262.332L209.8 262.125L210.008 261.917L210.216 261.502L210.735 260.879L210.839 260.567L211.151 260.048V259.944H211.047H210.943H210.839L210.735 260.048L210.527 260.359L210.424 260.255L210.216 260.048V259.944V259.736L210.32 259.529V259.425L210.424 259.321L210.527 259.425L210.735 259.632L210.839 259.736L211.047 259.632L212.085 258.282L213.643 256.933L214.578 256.309L215.928 254.96L216.654 254.336L217.174 254.129L217.797 253.61L218.316 253.402L219.355 252.883L220.289 252.363L220.705 252.052L217.589 253.61H217.278V253.506V253.402L217.07 253.194H217.174H217.278H217.381V252.987L217.485 252.883H217.589V253.09L217.693 253.194H217.901L218.108 253.09L218.212 252.987V252.883V252.779V252.675L218.42 252.571V252.363V252.26V252.156L218.316 252.052L218.212 252.26H218.108H218.005H217.797L217.278 252.779L216.654 252.571H216.447L216.343 252.779V252.883V252.987H216.447H216.551V253.09L216.343 253.194L216.239 253.298L216.135 253.402H215.928V253.506H216.031L216.447 253.713L216.343 253.817H216.239H216.135L216.031 253.713V253.921L216.135 254.025V254.129L215.928 254.233H215.824H215.72H215.616L215.512 254.336L215.408 254.44V254.544L215.304 254.648H215.201L215.304 254.544V254.44V254.336L215.201 254.233L215.097 254.44H214.993L214.889 254.336V254.129L214.993 254.025L215.201 253.921L215.408 253.817H215.512V253.713L215.616 253.09V252.883L215.72 252.675L215.928 252.467L216.031 252.363L216.239 251.948L216.447 251.74V251.429L216.654 251.014L216.966 250.702L217.278 250.494L217.381 250.39L217.485 250.287H217.693H217.901L218.628 249.664L219.147 249.144L219.458 248.937L219.77 248.833H219.978L220.497 249.041L221.016 249.144L221.224 249.248V250.39V250.598L221.12 250.702V250.806L221.224 250.91L221.328 251.014L221.12 251.117L220.601 251.429V251.325L220.705 251.221V251.117V251.014L220.185 251.221L219.874 251.325L219.77 251.429H219.666H219.562V251.533L219.666 251.637H219.77H219.874V251.844V251.948H219.978H220.289L221.12 251.637L221.951 251.117H222.262V251.221H222.158V251.325L222.885 250.91L223.301 250.806L223.508 250.702H223.612H224.028H224.132L224.339 250.598L224.858 250.287L225.378 250.183L226.935 249.664H227.143H227.247L227.351 249.56L227.455 249.456L227.559 249.56L227.662 249.664H227.766L228.078 249.56L230.051 248.833L231.401 248.106L231.193 248.002L230.986 247.898L230.778 247.794H230.674L230.57 247.691L230.466 247.587L230.362 247.483V247.379V247.275L230.259 247.171H230.155H230.051H229.947L229.428 247.068L229.22 246.964L228.909 246.652L228.701 246.548L228.597 246.444L228.493 246.341L228.389 245.925L228.493 245.614H228.597L228.701 245.718L228.805 246.029L228.909 246.133L229.22 246.444L229.324 246.548H229.636H230.155L231.089 247.379L231.712 247.691L232.128 247.483H232.024H231.92L231.816 247.379L231.712 247.275L232.024 247.068L232.647 246.237V246.029L232.751 245.718L232.855 245.095L232.959 244.991L233.166 244.783L233.478 244.679L234.101 244.471L234.62 244.264L235.763 243.537L236.282 243.121L235.866 243.433L235.659 243.537L235.555 243.433L235.659 243.329L235.866 243.225L236.074 243.121H236.178L236.386 242.914L236.697 242.498L236.905 241.979L236.697 241.668L236.593 241.979V242.187V242.395L236.386 242.291L236.178 242.395L235.97 242.602L235.659 242.706L235.763 241.875L235.866 241.46L236.074 241.149L236.386 240.837L238.255 239.383L238.878 239.176L239.19 238.968L239.501 238.656L239.709 238.449L239.605 238.552L239.397 238.656L239.086 238.76L238.982 238.656V238.552H238.878H238.774L238.67 238.449L238.566 238.345H238.463H238.359L238.463 238.241H238.67H238.878L239.086 238.345L239.19 238.241V238.137V238.033L239.086 237.929L238.982 237.722H238.878H238.566H237.943L237.632 237.618L237.528 237.41L238.047 237.306H238.255L238.463 237.41L238.566 237.099L238.359 236.476L237.009 233.36L236.905 232.114L237.32 230.972L237.943 230.037L239.813 228.064L240.436 227.649L241.578 227.026H241.682H241.993H242.097L242.201 226.922L242.72 227.026L243.344 226.922L244.174 226.611L245.005 226.299H245.109L246.874 225.78H247.186H247.705L247.913 225.676L248.536 225.157L249.471 224.638L249.886 224.326L250.197 224.015V223.911V223.807V223.703H250.301L250.821 223.391H250.924L251.132 223.288L251.34 223.08L251.963 221.73L252.171 221.522V221.418V221.315V221.211V221.107H252.274H252.69L253.001 220.899L253.417 220.588L253.728 220.172L253.832 219.757L253.624 219.238L253.313 218.926L252.898 218.719L252.378 218.615H251.963L251.755 218.511L251.548 218.407L251.236 217.992L251.028 217.784L250.924 217.576L250.821 216.538L250.613 215.915L250.405 215.603V215.499H250.717L250.924 215.603L251.028 215.811V216.123V216.33L251.236 216.849V217.161L251.34 217.369L251.548 217.576L251.859 217.888L252.067 218.096H252.274L252.482 217.992L252.69 217.888V218.199L253.105 218.407L253.728 218.615L254.144 218.822L254.248 219.03L254.351 219.757L254.455 220.069L254.248 220.38L253.728 221.107L253.624 221.315L253.521 221.522V221.73L253.728 222.457V222.561V222.665L254.351 223.807L254.455 224.015L254.351 224.222L254.455 224.638L254.351 224.949L254.144 225.261L254.04 225.468V225.78L254.144 226.091L254.351 226.611L254.559 226.507L254.767 226.611L254.871 226.922V227.234H254.975H255.078H255.286H255.39L255.494 227.13H255.598V227.026V226.922L255.39 226.818L255.286 226.714V226.507L255.39 226.195V226.091V225.78L254.975 224.43V224.118H255.078L255.286 224.326L255.39 224.534V224.741V226.299L255.494 226.611L255.598 226.714L255.805 226.611L255.909 226.299V226.091V225.988V225.884L255.701 225.572V225.468V225.364L255.805 225.261L255.909 225.364L256.013 225.468L256.117 225.572H256.221H256.325L256.532 225.468H256.636L256.532 225.884V226.403L256.636 226.818H256.844L257.051 226.611L257.259 226.507L257.467 226.403L257.571 226.091V225.78V225.572L257.363 225.157V224.949V224.741L257.467 224.534L257.571 224.326L257.675 224.015L257.778 223.911H257.882H257.986V223.703V223.495L257.778 222.976V222.768L257.882 222.457L257.986 222.249L258.09 222.042L257.986 221.834L258.194 222.042V222.353L257.986 222.872L258.194 223.184L258.402 223.495V223.911L258.194 224.326L258.09 224.638L258.194 225.053L258.402 225.78L258.298 225.884L258.194 225.988V226.195V226.403V226.611L258.09 226.714L257.986 226.818L257.882 226.922L257.778 227.234L257.882 227.545L258.09 227.649L258.505 227.545L258.402 227.441L258.298 227.337V227.234L258.402 227.13L258.505 227.337L258.713 227.441H258.921L259.025 227.234V226.507L259.232 226.611L259.336 226.299L259.232 225.364H259.336L259.544 225.468L259.648 225.261L259.752 224.949V224.741L259.648 224.326H259.44L259.128 224.43H258.921V224.326V223.495V223.288L259.336 222.249V222.042M259.336 222.042V221.418V221.211L259.544 220.899L259.648 220.692V220.588L259.544 220.38V220.069V219.965V219.861L259.648 219.757V219.445L259.752 219.238V219.134L259.855 218.926L259.959 218.719V218.615H260.167V218.926L260.063 219.238L259.855 219.342L259.648 219.861V220.069L259.752 220.38V220.795V221.003V221.211L259.648 221.418L259.44 221.73L259.336 221.834V222.042ZM259.336 222.042L259.44 222.145L259.544 222.249H259.752L259.855 222.145L259.959 222.249L260.063 222.145L260.167 221.938V221.73L260.478 221.211L260.582 220.899L260.478 220.795L260.271 220.692L260.167 220.484V220.276L260.271 220.069L260.375 219.861L260.582 219.653L260.79 219.549H260.998L260.582 219.965L260.375 220.172L260.271 220.38L260.375 220.588L260.894 220.899L260.998 221.211L260.894 221.418L260.79 221.626L260.582 221.73L260.478 221.834L260.375 222.042V222.768L260.167 223.599V223.807L260.271 224.015L260.063 225.572V225.78L260.478 226.714L260.271 227.13L260.478 227.337L260.894 227.441L261.205 227.234L261.309 227.026L261.205 226.818L261.102 226.611L260.998 226.299V226.195V226.091L261.102 225.988H261.205L261.309 225.884L261.413 225.78L261.517 225.468L261.621 225.676V225.78V225.884L261.413 226.091L261.517 226.299L261.725 226.403L261.932 226.299L262.14 226.091V225.884M262.14 225.884L262.555 226.091L262.763 226.195L262.971 226.299L263.075 226.611V226.818L262.971 227.026H262.867H262.659L262.452 227.13L262.14 227.026L262.036 226.403L262.14 225.884ZM253.105 222.457L252.69 223.184L252.171 224.534L252.067 224.845V225.053V225.157L252.171 225.364L252.274 225.468H252.586L252.898 225.572H253.001L253.105 225.468L253.209 225.261V225.053L253.105 224.638L253.521 224.326V223.495L253.313 222.042L253.105 222.457ZM163.173 303.142L162.757 302.831L162.134 302.415L162.03 302.519L161.926 302.935L162.55 303.661L162.861 303.869L163.276 303.765L163.484 303.661V303.558L163.38 303.454L163.173 303.142ZM252.898 222.457L253.105 222.042L253.209 221.626L253.001 221.315H252.794L252.69 221.418L252.586 221.626L252.482 221.834V222.042V222.249V222.457L252.586 222.561L252.898 222.457ZM259.752 221.522L259.544 221.626L259.336 221.938L259.128 222.353L259.025 222.768V222.872V222.976L259.128 223.184V223.288H259.232L259.648 223.391L259.752 223.495V222.768L259.855 222.457L259.959 222.145V221.938L259.855 221.73L259.752 221.522Z" stroke="#07C6BA" stroke-width="3" stroke-linecap="round" stroke-linejoin="round"/>
</svg>
