<svg width="20" height="20" viewBox="0 0 20 20" fill="none" xmlns="http://www.w3.org/2000/svg">
<path d="M10 2C5.58962 2 2 5.58962 2 10C2 14.4104 5.58962 18 10 18C14.4104 18 18 14.4104 18 10C18 5.58962 14.4104 2 10 2ZM10 3.33333C10.2621 3.33333 10.5336 3.44189 10.8438 3.73047C11.1539 4.01904 11.4748 4.48445 11.75 5.08984C11.8751 5.36514 11.9885 5.67252 12.0924 6H7.90755C8.01152 5.67252 8.12486 5.36514 8.25 5.08984C8.52518 4.48445 8.84613 4.01904 9.15625 3.73047C9.46637 3.44189 9.73792 3.33333 10 3.33333ZM7.39193 3.86198C7.26646 4.07591 7.14584 4.29843 7.03646 4.53906C6.83459 4.98317 6.66224 5.47531 6.51562 6H4.67057C5.37027 5.06824 6.30426 4.32323 7.39193 3.86198ZM12.6081 3.86198C13.6957 4.32323 14.6297 5.06824 15.3294 6H13.4844C13.3378 5.47531 13.1654 4.98317 12.9635 4.53906C12.8542 4.29843 12.7335 4.07591 12.6081 3.86198ZM3.88932 7.33333H6.22005C6.11278 7.96799 6.04268 8.63683 6.01562 9.33333H3.36589C3.4356 8.62776 3.61796 7.95618 3.88932 7.33333ZM7.57552 7.33333H12.4245C12.5414 7.95678 12.6203 8.62812 12.651 9.33333H7.34896C7.37966 8.62812 7.45861 7.95678 7.57552 7.33333ZM13.7799 7.33333H16.1107C16.382 7.95618 16.5644 8.62776 16.6341 9.33333H13.9844C13.9573 8.63683 13.8872 7.96799 13.7799 7.33333ZM3.36589 10.6667H6.01562C6.04268 11.3632 6.11278 12.032 6.22005 12.6667H3.88932C3.61796 12.0438 3.4356 11.3722 3.36589 10.6667ZM7.34896 10.6667H12.651C12.6203 11.3719 12.5414 12.0432 12.4245 12.6667H7.57552C7.45861 12.0432 7.37966 11.3719 7.34896 10.6667ZM13.9844 10.6667H16.6341C16.5644 11.3722 16.382 12.0438 16.1107 12.6667H13.7799C13.8872 12.032 13.9573 11.3632 13.9844 10.6667ZM4.67057 14H6.51562C6.66224 14.5247 6.83459 15.0168 7.03646 15.4609C7.14584 15.7016 7.26646 15.9241 7.39193 16.138C6.30426 15.6768 5.37027 14.9318 4.67057 14ZM7.90755 14H12.0924C11.9885 14.3275 11.8751 14.6349 11.75 14.9102C11.4748 15.5155 11.1539 15.981 10.8438 16.2695C10.5336 16.5581 10.2621 16.6667 10 16.6667C9.73792 16.6667 9.46637 16.5581 9.15625 16.2695C8.84613 15.981 8.52518 15.5155 8.25 14.9102C8.12486 14.6349 8.01152 14.3275 7.90755 14ZM13.4844 14H15.3294C14.6297 14.9318 13.6957 15.6768 12.6081 16.138C12.7335 15.9241 12.8542 15.7016 12.9635 15.4609C13.1654 15.0168 13.3378 14.5247 13.4844 14Z" fill="#353535"/>
</svg>
