<svg width="167" height="22" viewBox="0 0 167 22" fill="none" xmlns="http://www.w3.org/2000/svg">
<path d="M1 17.5323C1 17.2227 1.12384 17.037 1.3096 16.8512C1.49536 16.6655 1.74304 16.5416 1.99071 16.5416C2.17647 16.5416 2.36223 16.6035 2.54799 16.7274C2.73374 16.8512 2.85759 17.037 2.91951 17.2227C2.98143 17.4085 3.04334 17.6562 3.2291 17.8419C3.35294 18.0277 3.53869 18.2134 3.72445 18.3992C3.91021 18.585 4.15789 18.7088 4.46749 18.8326C4.77709 18.9565 5.08667 19.0184 5.45819 19.0184C6.1393 19.0184 6.63466 18.8326 7.0681 18.3992C7.43961 17.9658 7.68729 17.5323 7.68729 16.9751C7.68729 16.2939 7.43962 15.7367 6.94427 15.3651C6.44891 14.9936 5.82972 14.684 5.08669 14.4364C4.59133 14.2506 4.15788 14.0648 3.66253 13.8791C3.16717 13.6933 2.79566 13.4456 2.42414 13.136C2.05262 12.8264 1.74303 12.4549 1.55727 11.9596C1.30959 11.5261 1.24767 10.9069 1.24767 10.2258C1.24767 9.66855 1.37151 9.11129 1.55727 8.61594C1.74303 8.12058 2.05262 7.68714 2.42414 7.31563C2.79566 6.94411 3.29102 6.69643 3.78637 6.44876C4.28173 6.20108 4.90092 6.13916 5.52011 6.13916C6.07738 6.13916 6.63467 6.20108 7.19194 6.38683C7.74922 6.57259 8.18264 6.82027 8.55416 7.06795C8.92567 7.37755 9.23527 7.74905 9.48295 8.12057C9.73063 8.55401 9.85447 8.98745 9.85447 9.42088C9.85447 9.73048 9.73063 9.91624 9.54487 10.102C9.35911 10.2878 9.11143 10.4116 8.86376 10.4116C8.73992 10.4116 8.55416 10.3497 8.30648 10.2877C8.12073 10.1639 7.93498 9.97815 7.87306 9.66856C7.74922 9.29704 7.50154 8.92553 7.13002 8.61594C6.69658 8.24442 6.20122 8.12057 5.52011 8.12057C4.839 8.12057 4.28172 8.30633 3.9102 8.73976C3.53868 9.1732 3.35293 9.60665 3.35293 10.1639C3.35293 10.5354 3.41485 10.845 3.6006 11.0927C3.78636 11.3404 3.97212 11.5881 4.2198 11.7738C4.46748 11.9596 4.77707 12.1453 5.14859 12.2692C5.52011 12.393 5.89164 12.5168 6.32507 12.7026C6.75851 12.8264 7.19193 13.0122 7.62537 13.198C8.0588 13.3837 8.43033 13.6933 8.73993 14.0029C9.04952 14.3125 9.35911 14.684 9.54487 15.1794C9.73063 15.6747 9.85447 16.232 9.85447 16.8512C9.85447 17.4085 9.73063 17.9038 9.54487 18.3992C9.29719 18.8946 8.9876 19.328 8.61608 19.6995C8.24456 20.071 7.74922 20.3806 7.19194 20.5664C6.63467 20.8141 6.07738 20.876 5.45819 20.876C4.83899 20.876 4.28173 20.7521 3.72445 20.5664C3.16718 20.3806 2.73375 20.1329 2.30031 19.8233C1.86688 19.5137 1.55727 19.1422 1.3096 18.7088C1.06192 18.3992 1 17.9658 1 17.5323Z" fill="white" stroke="white" stroke-miterlimit="10"/>
<path d="M19.6995 21C18.6468 21 17.7181 20.8142 16.7893 20.4427C15.9224 20.0712 15.1174 19.5139 14.4363 18.8947C13.7552 18.2755 13.2598 17.4706 12.8883 16.5418C12.5168 15.6749 12.3311 14.6842 12.3311 13.6316C12.3311 12.6409 12.5168 11.6502 12.8883 10.7214C13.2598 9.7926 13.7552 9.04955 14.4363 8.36844C15.1174 7.68733 15.8605 7.19197 16.7893 6.82045C17.7181 6.44894 18.6468 6.26318 19.6995 6.26318C20.6902 6.26318 21.619 6.44895 22.4858 6.75855C23.2908 7.13007 23.9719 7.50158 24.5292 7.99694C24.8388 8.24462 24.9626 8.55421 24.9626 8.86381C24.9626 8.98765 24.9626 9.17339 24.9007 9.29723C24.8388 9.42107 24.7769 9.54492 24.5911 9.73067L19.6376 15.6749C19.3899 15.9226 19.1422 16.0465 18.8326 16.0465C18.523 16.0465 18.2753 15.9845 18.0896 15.7369C17.9038 15.5511 17.78 15.3034 17.78 14.9938C17.78 14.6842 17.8419 14.4365 18.0276 14.3127L22.362 9.1734C21.9905 8.86381 21.5571 8.61613 21.1236 8.49229C20.6283 8.36845 20.1948 8.30654 19.6995 8.30654C19.0183 8.30654 18.3372 8.43036 17.7181 8.73996C17.0989 9.04956 16.5416 9.42109 16.1081 9.85452C15.6128 10.3499 15.3032 10.9071 14.9936 11.5263C14.7459 12.2074 14.6221 12.8886 14.6221 13.6316C14.6221 14.3746 14.7459 15.0558 14.9936 15.7369C15.2413 16.3561 15.6128 16.9133 16.1081 17.4087C16.5416 17.904 17.0989 18.2756 17.7181 18.5232C18.3372 18.8328 19.0183 18.9567 19.6995 18.9567C20.5044 18.9567 21.1855 18.7709 21.8047 18.4613C22.4239 18.1517 22.9812 17.7183 23.3527 17.2849C23.4766 17.161 23.6623 17.0372 23.7861 16.9133C23.91 16.8514 24.0958 16.7895 24.2815 16.7895C24.5911 16.7895 24.8388 16.9133 25.0865 17.0991C25.2722 17.2848 25.3961 17.5325 25.3961 17.8421C25.3961 18.0898 25.2722 18.3375 25.0865 18.5851C24.4673 19.2663 23.7242 19.8855 22.7954 20.3189C21.9286 20.7523 20.8759 21 19.6995 21Z" fill="white" stroke="white" stroke-miterlimit="10"/>
<path d="M34.7458 21C33.6932 21 32.7644 20.8142 31.8356 20.4427C30.9068 20.0712 30.1638 19.5139 29.4827 18.8947C28.8016 18.2136 28.3062 17.4706 27.9347 16.5418C27.5632 15.613 27.3774 14.6842 27.3774 13.6316C27.3774 12.6409 27.5632 11.6502 27.9347 10.7214C28.3062 9.7926 28.8016 9.04955 29.4827 8.36844C30.1638 7.68733 30.9068 7.19197 31.8356 6.82045C32.7644 6.44894 33.6932 6.26318 34.7458 6.26318C35.9223 6.26318 36.975 6.51087 37.9037 6.9443C38.8325 7.37774 39.5756 7.935 40.1947 8.67804C40.4424 8.92571 40.5043 9.1734 40.5043 9.483C40.5043 9.7926 40.3805 10.0403 40.1947 10.226C40.009 10.4118 39.6994 10.5356 39.3898 10.5356C39.204 10.5356 39.0183 10.4737 38.8944 10.4118C38.7706 10.3499 38.5849 10.226 38.461 10.1022C38.0276 9.60684 37.5322 9.23533 36.913 8.92573C36.2938 8.61613 35.5508 8.43036 34.8078 8.43036C34.1267 8.43036 33.4455 8.55421 32.8263 8.86381C32.2071 9.1734 31.6499 9.54491 31.2164 9.97835C30.7211 10.4737 30.4115 11.031 30.1019 11.6502C29.8542 12.3313 29.7304 13.0124 29.7304 13.7554C29.7304 14.4985 29.8542 15.1796 30.1019 15.8607C30.3496 16.4799 30.7211 17.0372 31.2164 17.5325C31.6499 18.0279 32.2071 18.3994 32.8263 18.6471C33.4455 18.9567 34.1267 19.0805 34.8078 19.0805C35.6127 19.0805 36.2938 18.8947 36.913 18.5851C37.5322 18.2755 38.0895 17.8421 38.5229 17.4087C38.6468 17.2848 38.8325 17.161 38.9564 17.0372C39.0802 16.9133 39.266 16.9133 39.4517 16.9133C39.7613 16.9133 40.009 17.0372 40.2567 17.2229C40.4424 17.4087 40.5663 17.6564 40.5663 17.9659C40.5663 18.2136 40.4424 18.4613 40.2567 18.709C39.6375 19.3901 38.8944 20.0093 37.9656 20.4427C36.9749 20.7523 35.9223 21 34.7458 21Z" fill="white" stroke="white" stroke-miterlimit="10"/>
<path d="M50.2258 21C49.1732 21 48.2444 20.8142 47.3156 20.4427C46.3868 20.0712 45.6438 19.5139 44.9627 18.8947C44.2816 18.2136 43.7862 17.4706 43.4147 16.5418C43.0432 15.613 42.8574 14.6842 42.8574 13.6316C42.8574 12.6409 43.0432 11.6502 43.4147 10.7214C43.7862 9.7926 44.2816 9.04955 44.9627 8.36844C45.6438 7.68733 46.3868 7.19197 47.3156 6.82045C48.2444 6.44894 49.1732 6.26318 50.2258 6.26318C51.2785 6.26318 52.2072 6.44894 53.136 6.82045C54.0029 7.19197 54.8079 7.74925 55.489 8.36844C56.1701 8.98763 56.6654 9.7926 57.037 10.7214C57.4085 11.6502 57.5942 12.579 57.5942 13.6316C57.5942 14.6842 57.4085 15.613 57.037 16.5418C56.6654 17.4706 56.1701 18.2136 55.489 18.8947C54.8079 19.5759 54.0648 20.0712 53.136 20.4427C52.2072 20.7523 51.2165 21 50.2258 21ZM50.2258 18.8947C50.9689 18.8947 51.65 18.7709 52.2072 18.4613C52.8264 18.2136 53.3837 17.7802 53.8171 17.3468C54.2506 16.8514 54.6221 16.2941 54.8698 15.6749C55.1175 15.0557 55.2413 14.3127 55.2413 13.6316C55.2413 12.8886 55.1175 12.2074 54.8698 11.5263C54.6221 10.9071 54.2506 10.3499 53.8171 9.85452C53.3837 9.35917 52.8264 8.98764 52.2072 8.73996C51.588 8.43036 50.9069 8.30654 50.2258 8.30654C49.4828 8.30654 48.8017 8.43036 48.2444 8.73996C47.6252 9.04956 47.0679 9.42109 46.6345 9.85452C46.1391 10.3499 45.8295 10.9071 45.5199 11.5263C45.2723 12.1455 45.1484 12.8886 45.1484 13.6316C45.1484 14.3746 45.2723 15.0557 45.5199 15.6749C45.7676 16.3561 46.1391 16.9133 46.6345 17.3468C47.0679 17.8421 47.6252 18.2136 48.2444 18.4613C48.8017 18.7709 49.4828 18.8947 50.2258 18.8947Z" fill="white" stroke="white" stroke-miterlimit="10"/>
<path d="M60.6903 12.6408C60.6903 11.6501 60.8761 10.7213 61.1857 9.91634C61.4953 9.11138 61.9287 8.43028 62.486 7.873C63.0433 7.31573 63.6625 6.88229 64.4055 6.63462C65.1485 6.32502 65.9535 6.20117 66.8204 6.20117C67.6872 6.20117 68.4922 6.32502 69.2352 6.63462C69.9782 6.94421 70.6594 7.31573 71.1547 7.873C71.712 8.43028 72.1454 9.11138 72.455 9.91634C72.7646 10.7213 72.9504 11.5882 72.9504 12.6408V19.7615C72.9504 20.0711 72.8265 20.3188 72.6408 20.5665C72.455 20.8142 72.1454 20.8761 71.8358 20.8761C71.5262 20.8761 71.2786 20.7522 71.0309 20.5665C70.8451 20.3188 70.7213 20.0711 70.7213 19.7615V12.5789C70.7213 11.8978 70.5975 11.2786 70.4117 10.7213C70.2259 10.164 69.9163 9.73058 69.5448 9.35907C69.1733 8.98755 68.8018 8.73988 68.3064 8.55412C67.8111 8.36836 67.3157 8.30645 66.7584 8.30645C66.2012 8.30645 65.7058 8.43028 65.2105 8.55412C64.7151 8.73988 64.3436 8.98755 63.9721 9.35907C63.6005 9.73058 63.3529 10.164 63.1671 10.7213C62.9814 11.2786 62.8575 11.8978 62.8575 12.5789V19.7615C62.8575 20.0711 62.7337 20.3188 62.5479 20.5665C62.3622 20.8142 62.0526 20.8761 61.743 20.8761C61.4334 20.8761 61.1857 20.7522 60.938 20.5665C60.7523 20.3188 60.6284 20.0711 60.6284 19.7615V12.6408H60.6903Z" fill="white" stroke="white" stroke-miterlimit="10"/>
<path d="M88.4922 18.7709C87.8111 19.452 87.0681 20.0093 86.2012 20.4427C85.3343 20.8142 84.3436 21 83.291 21C82.2383 21 81.3095 20.8142 80.4427 20.4427C79.5758 20.0712 78.7709 19.5139 78.1517 18.8947C77.5325 18.2755 76.9752 17.4706 76.6037 16.5418C76.2322 15.613 76.0464 14.6842 76.0464 13.6316C76.0464 12.6408 76.2322 11.6501 76.6037 10.7214C76.9752 9.79256 77.4705 9.04952 78.1517 8.36841C78.8328 7.68729 79.5758 7.19194 80.4427 6.82042C81.3095 6.4489 82.3003 6.26315 83.291 6.26315C84.3436 6.26315 85.3343 6.44891 86.2012 6.88234C87.0681 7.25386 87.873 7.81114 88.4922 8.49225V2.11456C88.4922 1.80496 88.616 1.55727 88.8018 1.3096C88.9875 1.12384 89.2972 1 89.6068 1C89.9164 1 90.164 1.12384 90.4117 1.3096C90.5975 1.49536 90.7213 1.80496 90.7213 2.11456V19.8235C90.7213 20.1331 90.5975 20.3808 90.4117 20.6285C90.2259 20.8761 89.9164 20.9381 89.6068 20.9381C89.2972 20.9381 89.0495 20.8142 88.8018 20.6285C88.616 20.3808 88.4922 20.1331 88.4922 19.8235V18.7709ZM83.4148 18.8947C84.0959 18.8947 84.777 18.7709 85.3343 18.5232C85.9535 18.2755 86.4489 17.904 86.9442 17.4706C87.3776 17.0371 87.7492 16.4799 88.0588 15.8607C88.3064 15.2415 88.4922 14.5604 88.4922 13.8173V13.3839C88.4303 12.6409 88.3064 11.9597 88.0588 11.3405C87.8111 10.7214 87.4396 10.1641 86.9442 9.73064C86.5108 9.2972 85.9535 8.92568 85.3343 8.678C84.7151 8.43033 84.0959 8.3065 83.4148 8.3065C82.7337 8.3065 82.0526 8.43033 81.4334 8.73993C80.8142 8.9876 80.2569 9.35913 79.8235 9.85449C79.3281 10.3498 79.0185 10.9071 78.7089 11.5263C78.4613 12.2074 78.3374 12.8885 78.3374 13.6316C78.3374 14.3746 78.4613 15.1176 78.7089 15.7368C78.9566 16.356 79.3281 16.9133 79.8235 17.4086C80.2569 17.904 80.8142 18.2755 81.4334 18.5232C81.9907 18.7709 82.6718 18.8947 83.4148 18.8947Z" fill="white" stroke="white" stroke-miterlimit="10"/>
<path d="M101.186 21C100.133 21 99.2044 20.8142 98.2756 20.4427C97.3468 20.0712 96.6038 19.5139 95.9226 18.8947C95.2415 18.2136 94.7462 17.4706 94.3747 16.5418C94.0031 15.6749 93.8174 14.6842 93.8174 13.6316C93.8174 12.6409 94.0031 11.6502 94.3747 10.7214C94.7462 9.7926 95.2415 9.04955 95.9226 8.36844C96.6038 7.68733 97.3468 7.19197 98.2756 6.82045C99.2044 6.44894 100.133 6.26318 101.186 6.26318C102.238 6.26318 103.167 6.44894 104.096 6.82045C104.963 7.19197 105.768 7.74925 106.449 8.36844C107.13 9.04955 107.625 9.7926 107.997 10.7214C108.368 11.6502 108.554 12.579 108.554 13.6316C108.554 14.6842 108.368 15.613 107.997 16.5418C107.625 17.4087 107.13 18.2136 106.449 18.8947C105.768 19.5759 105.025 20.0712 104.096 20.4427C103.229 20.7523 102.238 21 101.186 21ZM101.186 18.8947C101.929 18.8947 102.61 18.7709 103.167 18.4613C103.786 18.2136 104.344 17.7802 104.777 17.3468C105.211 16.8514 105.582 16.2941 105.83 15.6749C106.077 15.0557 106.201 14.3127 106.201 13.6316C106.201 12.8886 106.077 12.2074 105.83 11.5263C105.582 10.9071 105.211 10.3499 104.777 9.85452C104.344 9.35917 103.786 8.98764 103.167 8.73996C102.548 8.43036 101.867 8.30654 101.186 8.30654C100.505 8.30654 99.7617 8.43036 99.2044 8.73996C98.6471 9.04956 98.0279 9.42109 97.5945 9.85452C97.0991 10.3499 96.7895 10.9071 96.4799 11.5263C96.2322 12.1455 96.1084 12.8886 96.1084 13.6316C96.1084 14.3746 96.2322 15.0557 96.4799 15.6749C96.7276 16.3561 97.0991 16.9133 97.5945 17.3468C98.0279 17.8421 98.5852 18.2136 99.2044 18.4613C99.8236 18.7709 100.443 18.8947 101.186 18.8947Z" fill="white" stroke="white" stroke-miterlimit="10"/>
<path d="M112.145 6.51082C112.207 5.64395 112.393 4.90093 112.702 4.21982C113.012 3.5387 113.445 2.98142 113.941 2.48606C114.436 1.99071 115.055 1.6192 115.736 1.37152C116.418 1.12384 117.161 1 118.027 1C118.337 1 118.585 1.12384 118.771 1.3096C118.956 1.49536 119.08 1.74304 119.08 2.05264C119.08 2.36223 118.956 2.6099 118.771 2.79566C118.585 2.98142 118.337 3.10526 118.027 3.10526C116.975 3.10526 116.17 3.41487 115.489 3.97214C114.87 4.59134 114.498 5.39628 114.374 6.51082H118.027C118.337 6.51082 118.585 6.63466 118.771 6.82042C118.956 7.00618 119.08 7.25387 119.08 7.56346C119.08 7.87306 118.956 8.05883 118.771 8.3065C118.585 8.49226 118.337 8.6161 118.027 8.6161H114.374V19.8235C114.374 20.1331 114.25 20.3808 114.065 20.6285C113.879 20.8761 113.569 20.9381 113.26 20.9381C112.95 20.9381 112.702 20.8142 112.455 20.6285C112.269 20.3808 112.145 20.1331 112.145 19.8235V8.6161H110.659C110.349 8.6161 110.102 8.49226 109.916 8.3065C109.73 8.12074 109.606 7.87306 109.606 7.56346C109.606 7.25387 109.73 7.00618 109.916 6.82042C110.102 6.63466 110.349 6.51082 110.659 6.51082H112.145Z" fill="white" stroke="white" stroke-miterlimit="10"/>
<path d="M122.981 6.51082C123.043 5.64395 123.229 4.90093 123.539 4.21982C123.848 3.5387 124.282 2.98142 124.777 2.48606C125.272 1.99071 125.892 1.6192 126.573 1.37152C127.254 1.12384 127.997 1 128.864 1C129.173 1 129.421 1.12384 129.607 1.3096C129.793 1.49536 129.916 1.74304 129.916 2.05264C129.916 2.36223 129.793 2.6099 129.607 2.79566C129.421 2.98142 129.173 3.10526 128.864 3.10526C127.811 3.10526 127.006 3.41487 126.325 3.97214C125.706 4.59134 125.334 5.39628 125.211 6.51082H128.802C129.112 6.51082 129.359 6.63466 129.545 6.82042C129.731 7.00618 129.855 7.25387 129.855 7.56346C129.855 7.87306 129.731 8.05883 129.545 8.3065C129.359 8.49226 129.112 8.6161 128.802 8.6161H125.149V19.8235C125.149 20.1331 125.025 20.3808 124.839 20.6285C124.653 20.8761 124.344 20.9381 124.034 20.9381C123.725 20.9381 123.477 20.8142 123.229 20.6285C123.043 20.3808 122.92 20.1331 122.92 19.8235V8.6161H121.433C121.124 8.6161 120.876 8.49226 120.69 8.3065C120.505 8.12074 120.381 7.87306 120.381 7.56346C120.381 7.25387 120.505 7.00618 120.69 6.82042C120.876 6.63466 121.124 6.51082 121.433 6.51082H122.981Z" fill="white" stroke="white" stroke-miterlimit="10"/>
<path d="M133.384 4.40543C133.012 4.40543 132.641 4.2816 132.393 3.972C132.145 3.72432 131.959 3.3528 131.959 2.98129C131.959 2.60977 132.083 2.23825 132.393 1.99057C132.641 1.74289 133.012 1.55713 133.384 1.55713C133.755 1.55713 134.065 1.68098 134.374 1.99057C134.684 2.23825 134.808 2.60977 134.808 2.98129C134.808 3.3528 134.684 3.6624 134.374 3.972C134.127 4.2816 133.755 4.40543 133.384 4.40543ZM132.269 7.37757C132.269 7.06797 132.393 6.82028 132.579 6.57261C132.764 6.38685 133.074 6.26301 133.384 6.26301C133.693 6.26301 133.941 6.38685 134.189 6.57261C134.374 6.75836 134.498 7.06797 134.498 7.37757V19.7615C134.498 20.0711 134.374 20.3187 134.189 20.5664C134.003 20.8141 133.693 20.876 133.384 20.876C133.074 20.876 132.826 20.7522 132.579 20.5664C132.393 20.3187 132.269 20.0711 132.269 19.7615V7.37757Z" fill="white" stroke="white" stroke-miterlimit="10"/>
<path d="M145.025 21C143.972 21 143.043 20.8142 142.114 20.4427C141.186 20.0712 140.443 19.5139 139.762 18.8947C139.08 18.2136 138.585 17.4706 138.214 16.5418C137.842 15.6749 137.656 14.6842 137.656 13.6316C137.656 12.6409 137.842 11.6502 138.214 10.7214C138.585 9.7926 139.08 9.04955 139.762 8.36844C140.443 7.68733 141.186 7.19197 142.114 6.82045C143.043 6.44894 143.972 6.26318 145.025 6.26318C146.201 6.26318 147.254 6.51087 148.183 6.9443C149.111 7.37774 149.854 7.935 150.474 8.67804C150.721 8.92571 150.783 9.1734 150.783 9.483C150.783 9.7926 150.659 10.0403 150.474 10.226C150.288 10.4118 149.978 10.5356 149.669 10.5356C149.483 10.5356 149.297 10.4737 149.173 10.4118C149.049 10.3499 148.864 10.226 148.74 10.1022C148.306 9.60684 147.811 9.23533 147.192 8.92573C146.573 8.61613 145.83 8.43036 145.087 8.43036C144.405 8.43036 143.724 8.55421 143.105 8.86381C142.486 9.1734 141.929 9.54491 141.495 9.97835C141 10.4737 140.69 11.031 140.381 11.6502C140.133 12.3313 140.009 13.0124 140.009 13.7554C140.009 14.4985 140.133 15.1796 140.381 15.8607C140.628 16.5418 141 17.0372 141.495 17.5325C141.991 18.0279 142.486 18.3994 143.105 18.6471C143.724 18.9567 144.405 19.0805 145.087 19.0805C145.892 19.0805 146.573 18.8947 147.192 18.5851C147.811 18.2755 148.368 17.8421 148.802 17.4087C148.926 17.2848 149.111 17.161 149.235 17.0372C149.359 16.9133 149.545 16.9133 149.731 16.9133C150.04 16.9133 150.288 17.0372 150.535 17.2229C150.783 17.4087 150.845 17.6564 150.845 17.9659C150.845 18.2136 150.721 18.4613 150.535 18.709C149.916 19.3901 149.173 20.0093 148.244 20.4427C147.192 20.7523 146.139 21 145.025 21Z" fill="white" stroke="white" stroke-miterlimit="10"/>
<path d="M160.443 21C159.39 21 158.461 20.8142 157.532 20.4427C156.666 20.0712 155.861 19.5139 155.179 18.8947C154.498 18.2136 154.003 17.4706 153.631 16.5418C153.26 15.613 153.074 14.6842 153.074 13.6316C153.074 12.6409 153.26 11.6502 153.631 10.7214C154.003 9.7926 154.498 9.04955 155.179 8.36844C155.861 7.68733 156.604 7.19197 157.532 6.82045C158.461 6.44894 159.39 6.26318 160.443 6.26318C161.433 6.26318 162.362 6.44895 163.229 6.75855C164.034 7.13007 164.715 7.50158 165.272 7.99694C165.52 8.24462 165.706 8.55421 165.706 8.86381C165.706 8.98765 165.706 9.17339 165.644 9.29723C165.582 9.42107 165.52 9.54492 165.334 9.73067L160.381 15.6749C160.133 15.9226 159.885 16.0465 159.576 16.0465C159.266 16.0465 159.018 15.9845 158.833 15.7369C158.647 15.5511 158.523 15.3034 158.523 14.9938C158.523 14.6842 158.585 14.4365 158.771 14.3127L163.105 9.1734C162.734 8.86381 162.3 8.61613 161.867 8.49229C161.371 8.36845 160.938 8.30654 160.443 8.30654C159.761 8.30654 159.08 8.43036 158.461 8.73996C157.842 9.04956 157.285 9.42109 156.851 9.85452C156.356 10.3499 156.046 10.9071 155.737 11.5263C155.489 12.2074 155.365 12.8886 155.365 13.6316C155.365 14.3746 155.489 15.0558 155.737 15.7369C155.984 16.418 156.356 16.9133 156.851 17.4087C157.347 17.904 157.842 18.2756 158.461 18.5232C159.08 18.8328 159.761 18.9567 160.443 18.9567C161.248 18.9567 161.929 18.7709 162.548 18.4613C163.167 18.1517 163.724 17.7183 164.096 17.2849C164.22 17.161 164.405 17.0372 164.529 16.9133C164.653 16.8514 164.839 16.7895 165.025 16.7895C165.334 16.7895 165.582 16.9133 165.83 17.0991C166.077 17.2848 166.139 17.5325 166.139 17.8421C166.139 18.0898 166.015 18.3375 165.83 18.5851C165.21 19.2663 164.467 19.8855 163.539 20.3189C162.672 20.7523 161.619 21 160.443 21Z" fill="white" stroke="white" stroke-miterlimit="10"/>
</svg>
