<svg width="35" height="35" viewBox="0 0 35 35" fill="none" xmlns="http://www.w3.org/2000/svg">
<path d="M29.3564 6.03765C28.8916 6.05406 28.465 6.30015 28.2189 6.6939L15.0502 26.8408L6.51895 19.4689C6.15254 19.0888 5.60293 18.9466 5.09707 19.1052C4.59395 19.2611 4.21934 19.6877 4.13184 20.2072C4.04434 20.7294 4.25488 21.2544 4.68145 21.5689L14.4377 30.0127C14.7439 30.2724 15.1486 30.3873 15.5451 30.3298C15.9443 30.2697 16.2971 30.0427 16.5158 29.7064L30.5814 8.22515C30.8822 7.78492 30.9068 7.21617 30.6471 6.75132C30.3873 6.28921 29.8869 6.01304 29.3564 6.03765Z" fill="#07C6BA"/>
</svg>
