<svg width="25" height="25" viewBox="0 0 25 25" fill="none" xmlns="http://www.w3.org/2000/svg">
<path d="M22.7273 0H2.27273C1.01705 0 0 1.01705 0 2.27273V22.7273C0 23.983 1.01705 25 2.27273 25H22.7273C23.983 25 25 23.983 25 22.7273V2.27273C25 1.01705 23.983 0 22.7273 0ZM18.9545 9.07841C18.9614 9.22614 18.9648 9.375 18.9648 9.52386C18.9648 14.0727 15.5023 19.3182 9.17045 19.3182C7.22614 19.3182 5.41705 18.7489 3.89318 17.7716C4.1625 17.8034 4.4375 17.8193 4.71477 17.8193C6.32727 17.8193 7.81136 17.2693 8.98977 16.3455C7.48295 16.317 6.2125 15.3216 5.77386 13.9545C5.98409 13.9943 6.2 14.0159 6.42159 14.0159C6.73636 14.0159 7.03977 13.9739 7.32955 13.8955C5.75455 13.5795 4.56818 12.1886 4.56818 10.5205C4.56818 10.5057 4.56818 10.492 4.56818 10.4773C5.03296 10.7352 5.5625 10.8898 6.12727 10.908C5.20341 10.2909 4.59659 9.2375 4.59659 8.04318C4.59659 7.41136 4.76705 6.82045 5.0625 6.3125C6.76023 8.39545 9.29659 9.76591 12.158 9.90909C12.1 9.65796 12.0693 9.39432 12.0693 9.125C12.0693 7.22386 13.6114 5.68295 15.5114 5.68295C16.5011 5.68295 17.3966 6.10114 18.0239 6.77045C18.808 6.61591 19.5455 6.32955 20.2102 5.93523C19.9534 6.73864 19.408 7.41364 18.6966 7.83977C19.3932 7.75682 20.0568 7.57159 20.6739 7.29773C20.2114 7.98636 19.6273 8.59205 18.9545 9.07841Z" fill="#353535"/>
</svg>
