<svg width="25" height="25" viewBox="0 0 25 25" fill="none" xmlns="http://www.w3.org/2000/svg">
<path d="M22.7273 0H2.27273C1.01705 0 0 1.01705 0 2.27273V22.7273C0 23.983 1.01705 25 2.27273 25H22.7273C23.983 25 25 23.983 25 22.7273V2.27273C25 1.01705 23.983 0 22.7273 0ZM7.90227 20.4545H4.55V9.66818H7.90227V20.4545ZM6.19205 8.12614C5.11136 8.12614 4.2375 7.25 4.2375 6.17159C4.2375 5.09318 5.1125 4.21818 6.19205 4.21818C7.26932 4.21818 8.14545 5.09432 8.14545 6.17159C8.14545 7.25 7.26932 8.12614 6.19205 8.12614ZM20.4591 20.4545H17.1091V15.2091C17.1091 13.958 17.0864 12.3489 15.367 12.3489C13.6227 12.3489 13.3545 13.7114 13.3545 15.1182V20.4545H10.0045V9.66818H13.2205V11.142H13.2659C13.7136 10.2943 14.8068 9.4 16.4375 9.4C19.8318 9.4 20.4591 11.6341 20.4591 14.5386V20.4545Z" fill="#353535"/>
</svg>
