<svg width="25" height="25" viewBox="0 0 25 25" fill="none" xmlns="http://www.w3.org/2000/svg">
<path d="M22.7273 0H2.27273C1.01705 0 0 1.01705 0 2.27273V22.7273C0 23.983 1.01705 25 2.27273 25H13.6364V14.7727H10.2273V11.3636H13.6364V9.53295C13.6364 6.06705 15.325 4.54545 18.2057 4.54545C19.5852 4.54545 20.3148 4.64773 20.6602 4.69432V7.95455H18.6955C17.4727 7.95455 17.0455 8.6 17.0455 9.90682V11.3636H20.6295L20.1432 14.7727H17.0455V25H22.7273C23.983 25 25 23.983 25 22.7273V2.27273C25 1.01705 23.9818 0 22.7273 0Z" fill="#353535"/>
</svg>
